<?xml version="1.0" encoding="iso-8859-1"?>
<!-- Generator: Adobe Illustrator 19.0.0, SVG Export Plug-In . SVG Version: 6.00 Build 0)  -->
<svg version="1.1" id="Capa_1" xmlns="http://www.w3.org/2000/svg" xmlns:xlink="http://www.w3.org/1999/xlink" x="0px" y="0px"
	 viewBox="0 0 396.375 396.375" style="enable-background:new 0 0 396.375 396.375;" xml:space="preserve">
<g>
	<g id="Guides_For_Artboard_15_">
	</g>
	<g id="Guides_For_Artboard_14_">
	</g>
	<g id="Artwork_14_">
	</g>
	<g id="Layer_2_14_">
		<g>
			<path style="fill:none;" d="M198.066,62.24c-17.324,0.309-32.673,4.768-32.831,4.813c-0.089,0.026-0.18,0.044-0.269,0.067
				c1.176,2.12,2.416,4.216,3.744,6.263c9.773,15.059,18.609,28.404,29.355,43.369c10.746-14.965,19.582-28.311,29.355-43.369
				c1.328-2.047,2.568-4.143,3.744-6.263c-0.089-0.023-0.18-0.041-0.269-0.067C230.739,67.008,215.39,62.549,198.066,62.24z"/>
			<path style="fill:#D43D21;" d="M163.574,67.12c0.089-0.023-0.428-0.041-0.339-0.067c0.158-0.045,17.507-4.504,34.831-4.813
				c17.324,0.309,32.673,4.768,32.831,4.813c0.089,0.026,1.004,0.044,1.093,0.067c13.516-24.368,16.951-51.9,16.801-53.374
				c0.005,0.003-0.52-0.338-0.516-0.334c-2.222-1.481-3.988-2.395-4.416-2.631c-0.059-0.033-1.363-0.752-1.423-0.783
				C229.951,3.461,214.609,0.004,198.066,0c-16.543,0.004-31.885,3.461-44.37,9.998c-0.06,0.031-1.364,0.75-1.423,0.783
				c-0.428,0.236-2.194,1.149-4.416,2.631c0.004-0.004-0.762,0.493-0.757,0.49C146.95,15.376,150.058,42.752,163.574,67.12z"/>
			<path style="fill:#E74424;" d="M353.995,328.539c-35.531-47.012-63.018-83.295-85.104-112.447
				c-9.444-12.467-17.797-23.492-25.233-33.315c6.175-7.562,25.936-31.836,31.426-39.468c7.098-9.963,16.783-23.563,7.441-52.639
				c-10.055-31.84-17.548-52.377-20.712-60.617c-3.162-8.235-4.713-10.981-13.538-16.641c-0.004-0.004-0.009-0.007-0.014-0.01
				c0.15,1.474-3.58,29.35-17.096,53.718c-1.176,2.12-2.416,4.216-3.744,6.263c-9.773,15.059-18.609,28.404-29.355,43.369
				c-10.746-14.965-19.582-28.311-29.355-43.369c-1.328-2.047-2.568-4.143-3.744-6.263c-13.516-24.368-17.246-52.244-17.096-53.718
				c-0.005,0.003-0.01,0.006-0.014,0.01c-8.826,5.659-10.377,8.405-13.538,16.641c-3.164,8.24-10.657,28.777-20.712,60.617
				c-9.342,29.076,0.344,42.676,7.44,52.639c5.491,7.632,25.252,31.906,31.425,39.468c-7.435,9.823-15.787,20.849-25.231,33.315
				c-22.086,29.152-49.572,65.436-85.104,112.447c-2.237,2.959-2.22,6.918,0.045,9.859l41.901,54.436
				c1.712,2.225,4.466,3.541,7.396,3.541c0.042,0,0.085,0,0.128-0.002c2.978-0.039,5.746-1.434,7.414-3.734
				c0.818-1.129,50.26-69.326,99.045-136.781c26.607,36.79,53.408,73.798,72.411,100.028h0.001
				c1.158,0.001,26.26-36.238,26.632-36.752c1.669-2.301,4.438-3.695,7.415-3.734c0.043-0.002,0.086-0.002,0.128-0.002
				c2.93,0,5.684,1.316,7.396,3.541l28.439,36.947l1.464,0.001l12.456-16.983C356.672,335.962,356.232,331.498,353.995,328.539z"/>
			<path style="fill:#D43D21;" d="M306.155,314.552c-0.043,0-0.087,0-0.131,0.002c-3.039,0.04-7.1-0.002-9.616,4.214
				c-0.253,0.425-8.91,12.502-25.93,37.118l-0.001,0.001h71.475l-0.001-0.001l-28.245-37.72
				C311.958,315.896,309.146,314.552,306.155,314.552z"/>
		</g>
	</g>
</g>
<g>
</g>
<g>
</g>
<g>
</g>
<g>
</g>
<g>
</g>
<g>
</g>
<g>
</g>
<g>
</g>
<g>
</g>
<g>
</g>
<g>
</g>
<g>
</g>
<g>
</g>
<g>
</g>
<g>
</g>
</svg>
