<?xml version="1.0" encoding="iso-8859-1"?>
<!-- Generator: Adobe Illustrator 19.0.0, SVG Export Plug-In . SVG Version: 6.00 Build 0)  -->
<svg version="1.1" id="Capa_1" xmlns="http://www.w3.org/2000/svg" xmlns:xlink="http://www.w3.org/1999/xlink" x="0px" y="0px"
	 viewBox="0 0 396.595 396.595" style="enable-background:new 0 0 396.595 396.595;" xml:space="preserve">
<g>
	<g id="Guides_For_Artboard_28_">
	</g>
	<g id="Artwork_27_">
	</g>
	<g id="Layer_2_27_">
		<g>
			<path style="fill:#55734C;" d="M225.669,95.104c7.669-2.836,16.226-5.74,24.801-7.543c3.662-3.439,6.834-6.936,9.572-10.17
				c17.912-20.842,25.923-44.842,23.808-71.335C283.578,2.636,280.723,0,277.293,0h-2.895c-0.289,0-0.578,0.018-0.864,0.058
				c-22.589,2.992-47.29,16.134-61.478,32.707c-11.484,13.468-26.486,35.298-24.185,69.229c0.012,0.178,0.057,0.344,0.083,0.517
				c3.111,0.86,6.253,1.421,9.343,1.438C207.1,103.894,217.422,98.389,225.669,95.104z"/>
			<path style="fill:#D43D21;" d="M315.728,99.605c-15.282-9.391-36.318-17.409-59.729-13.897c-1.507,0.242-3.019,0.536-4.529,0.854
				c-8.575,1.803-17.132,4.707-24.801,7.543c-8.247,3.285-18.569,8.79-28.371,8.846c-3.09-0.018-6.231-0.578-9.343-1.438
				c-6.761-1.868-13.382-5.157-19.028-7.407c-9.021-3.336-19.27-6.78-29.331-8.396c-23.411-3.512-44.447,4.507-59.73,13.897
				c-29.067,17.667-50.798,54.24-52.743,99.095v18.488c4.505,62.703,28.636,111.731,59.821,149.722
				c10.578,12.811,25.077,27.031,43.1,29.683h8.394c22.178-3.123,36.396-14.683,58.86-16.517
				c22.463,1.834,36.681,13.394,58.858,16.517h8.395c18.021-2.651,32.522-16.872,43.1-29.683
				c31.186-37.99,55.316-87.019,59.821-149.722v-18.488C366.527,153.845,344.795,117.272,315.728,99.605z M289.952,224.751
				c-3.98,24.249-32.939,51.504-56.269,73.449c0,0-11.642,11.688-15.136,14.683c-2.621,2.258-8.33,6.796-14.503,6.796
				c-6.183,0-11.878-4.538-14.515-6.796c-3.494-2.995-15.137-14.683-15.137-14.683c-23.328-21.945-52.286-49.189-56.269-73.449
				c-2.791-17.145-0.066-31.283,8.113-42.018c8.25-10.837,20.811-17.021,38.399-18.904c1.702-0.17,3.232-0.25,4.778-0.25
				c12.424,0,24.985,4.63,34.617,12.46c9.646-7.83,22.196-12.46,34.645-12.46c1.53,0,3.074,0.08,4.765,0.25
				c17.588,1.884,30.137,8.067,38.397,18.904C290.021,193.468,292.744,207.606,289.952,224.751z"/>
			<path style="fill:#F7F1E6;" d="M243.442,163.829c-1.69-0.17-3.234-0.25-4.765-0.25c-12.448,0-24.999,4.63-34.645,12.46
				c-9.632-7.83-22.193-12.46-34.617-12.46c-1.546,0-3.076,0.08-4.778,0.25c-17.589,1.884-30.149,8.067-38.399,18.904
				c-8.18,10.734-10.904,24.873-8.113,42.018c3.983,24.26,32.94,51.504,56.269,73.449c0,0,11.643,11.688,15.137,14.683
				c2.637,2.258,8.332,6.796,14.515,6.796c6.173,0,11.882-4.538,14.503-6.796c3.494-2.995,15.136-14.683,15.136-14.683
				c23.329-21.945,52.288-49.2,56.269-73.449c2.792-17.145,0.069-31.283-8.112-42.018
				C273.579,171.896,261.03,165.713,243.442,163.829z"/>
		</g>
	</g>
</g>
<g>
</g>
<g>
</g>
<g>
</g>
<g>
</g>
<g>
</g>
<g>
</g>
<g>
</g>
<g>
</g>
<g>
</g>
<g>
</g>
<g>
</g>
<g>
</g>
<g>
</g>
<g>
</g>
<g>
</g>
</svg>
