<?xml version="1.0" encoding="iso-8859-1"?>
<!-- Generator: Adobe Illustrator 19.0.0, SVG Export Plug-In . SVG Version: 6.00 Build 0)  -->
<svg version="1.1" id="Capa_1" xmlns="http://www.w3.org/2000/svg" xmlns:xlink="http://www.w3.org/1999/xlink" x="0px" y="0px"
	 viewBox="0 0 410.924 410.924" style="enable-background:new 0 0 410.924 410.924;" xml:space="preserve">
<g>
	<g id="Guides_For_Artboard_42_">
	</g>
	<g id="Artwork_41_">
	</g>
	<g id="Layer_2_41_">
		<g>
			<path style="fill:none;" d="M259.433,133.413c-1.658-12.364-3.75-24.195-6.249-35.334c-13.061,7.926-27.076,18.21-41.311,30.352
				c1.155,0.856,2.31,1.729,3.465,2.602C230.399,131.278,245.171,132.075,259.433,133.413z"/>
			<path style="fill:none;" d="M309.792,140.797c0.018-0.041,0.036-0.082,0.054-0.122c11.86-27.479,13.653-48.64,4.798-56.604
				c-2.977-2.678-7.306-4.035-12.866-4.035c-9.345,0-21.015,3.551-34.104,10.03c3.339,14.056,6.04,29.204,8.047,45.138
				C287.551,136.694,298.951,138.566,309.792,140.797z"/>
			<path style="fill:none;" d="M279.755,189.191c0.553,0.595,1.114,1.188,1.661,1.783c8.246-12.046,15.421-23.93,21.323-35.351
				c-8.111-1.584-16.536-2.966-25.228-4.132C278.659,163.729,279.408,176.343,279.755,189.191z"/>
			<path style="fill:none;" d="M189.221,131.169c0.584-0.543,1.169-1.095,1.754-1.632c-12.155-8.325-24.064-15.522-35.346-21.381
				c-1.586,8.12-2.97,16.556-4.137,25.258C163.739,132.264,176.363,131.516,189.221,131.169z"/>
			<path style="fill:none;" d="M147.688,174.772c3.378-3.996,6.839-7.976,10.392-11.926c4.648-5.168,9.348-10.169,14.075-15.014
				c-7.648,0.441-15.182,1.026-22.557,1.766C148.773,157.812,148.141,166.223,147.688,174.772z"/>
			<path style="fill:none;" d="M263.971,214.662c0.047-3.056,0.08-6.12,0.08-9.2c0-4.722-0.058-9.417-0.169-14.079
				c-7.718-7.97-15.911-15.879-24.516-23.619c-8.171-7.349-16.456-14.299-24.739-20.812c-3.044-0.047-6.096-0.08-9.165-0.08
				c-4.71,0-9.392,0.058-14.042,0.168c-7.969,7.7-15.898,15.891-23.656,24.516c-7.335,8.155-14.287,16.422-20.811,24.704
				c-0.047,3.056-0.08,6.121-0.08,9.202c0,4.723,0.058,9.419,0.169,14.082c7.717,7.969,15.909,15.876,24.513,23.615
				c8.171,7.349,16.457,14.3,24.74,20.813c3.045,0.047,6.098,0.08,9.167,0.08c4.709,0,9.392-0.058,14.041-0.168
				c7.969-7.7,15.898-15.89,23.655-24.515C250.494,231.212,257.447,222.944,263.971,214.662z M205.462,233.409
				c-15.434,0-27.947-12.512-27.947-27.947c0-15.435,12.513-27.947,27.947-27.947s27.947,12.512,27.947,27.947
				C233.408,220.897,220.896,233.409,205.462,233.409z"/>
			<path style="fill:none;" d="M15.931,205.462c0,13.68,19.598,28.451,52.424,39.513c8.29,2.793,17.21,5.3,26.653,7.508
				c6.856-13.688,15.49-28.024,25.578-42.527c-14.401-16.634-26.534-33.25-35.67-48.982c-5.754,1.542-11.289,3.198-16.561,4.975
				C35.529,177.011,15.931,191.782,15.931,205.462z"/>
			<path style="fill:none;" d="M326.007,249.95c5.754-1.542,11.29-3.198,16.563-4.975c32.826-11.062,52.424-25.833,52.424-39.513
				s-19.598-28.451-52.424-39.513c-8.29-2.793-17.211-5.301-26.654-7.509c-6.856,13.688-15.49,28.024-25.579,42.528
				C304.738,217.602,316.871,234.217,326.007,249.95z"/>
			<path style="fill:none;" d="M205.462,15.931c-13.68,0-28.451,19.598-39.513,52.424c-2.794,8.292-5.302,17.215-7.51,26.661
				c2.866,1.438,5.77,2.949,8.722,4.558c11.06,6.028,22.408,13.102,33.819,21.037c16.835-14.563,33.482-26.663,48.978-35.66
				c-1.544-5.766-3.204-11.313-4.984-16.596C233.912,35.529,219.141,15.931,205.462,15.931z"/>
			<path style="fill:none;" d="M205.462,394.993c13.68,0,28.451-19.598,39.513-52.424c2.794-8.292,5.302-17.215,7.51-26.66
				c-2.867-1.438-5.771-2.949-8.724-4.559c-11.059-6.028-22.407-13.102-33.818-21.037c-16.835,14.563-33.482,26.662-48.978,35.659
				c1.544,5.767,3.204,11.313,4.984,16.596C177.012,375.395,191.783,394.993,205.462,394.993z"/>
			<path style="fill:none;" d="M236.149,147.687c4,3.38,7.981,6.841,11.93,10.393c5.15,4.633,10.154,9.33,15.013,14.065
				c-0.441-7.645-1.025-15.176-1.765-22.548C253.11,148.773,244.699,148.14,236.149,147.687z"/>
			<path style="fill:none;" d="M140.81,101.075c-15.464-6.702-29.244-10.378-40.173-10.378c-7.661,0-13.234,1.878-16.566,5.583
				c-7.042,7.831-4.709,25.045,6.084,46.95c14.031-3.33,29.149-6.023,45.05-8.026C136.698,123.352,138.573,111.934,140.81,101.075z"
				/>
			<path style="fill:none;" d="M101.133,270.127c-0.018,0.041-0.036,0.082-0.054,0.122c-11.86,27.479-13.654,48.639-4.799,56.604
				c2.977,2.678,7.306,4.035,12.867,4.035c9.344,0,21.015-3.551,34.104-10.03c-3.339-14.056-6.04-29.204-8.047-45.138
				C123.374,274.23,111.973,272.358,101.133,270.127z"/>
			<path style="fill:none;" d="M312.794,253.195c-8.045-13.331-18.296-27.3-30.273-41.347c-0.865,1.166-1.746,2.333-2.628,3.5
				c-0.246,15.058-1.043,29.826-2.381,44.084C289.857,257.777,301.67,255.689,312.794,253.195z"/>
			<path style="fill:none;" d="M263.237,236.151c-3.379,3.996-6.839,7.977-10.393,11.928c-4.648,5.167-9.348,10.169-14.075,15.014
				c7.648-0.441,15.182-1.026,22.558-1.766C262.151,253.112,262.784,244.701,263.237,236.151z"/>
			<path style="fill:none;" d="M221.701,279.755c-0.585,0.543-1.169,1.095-1.754,1.632c12.156,8.325,24.065,15.522,35.347,21.382
				c1.587-8.12,2.971-16.556,4.138-25.258C247.186,278.66,234.561,279.408,221.701,279.755z"/>
			<path style="fill:none;" d="M174.773,263.237c-4-3.381-7.981-6.842-11.93-10.393c-5.15-4.632-10.153-9.329-15.011-14.063
				c0.441,7.644,1.025,15.175,1.765,22.546C157.812,262.151,166.225,262.784,174.773,263.237z"/>
			<path style="fill:none;" d="M131.033,195.573c0.246-15.057,1.043-29.825,2.381-44.082c-12.346,1.655-24.16,3.744-35.285,6.238
				c8.044,13.331,18.295,27.3,30.273,41.347C129.268,197.909,130.15,196.741,131.033,195.573z"/>
			<path style="fill:none;" d="M270.115,309.849c15.464,6.702,29.243,10.377,40.171,10.377c7.661,0,13.234-1.878,16.565-5.583
				c7.043-7.83,4.709-25.044-6.083-46.95c-14.03,3.329-29.147,6.022-45.048,8.026C274.228,287.572,272.352,298.991,270.115,309.849z
				"/>
			<path style="fill:none;" d="M151.492,277.511c1.658,12.364,3.75,24.195,6.249,35.334c13.061-7.926,27.076-18.21,41.31-30.352
				c-1.155-0.856-2.31-1.729-3.465-2.602C180.525,279.646,165.753,278.849,151.492,277.511z"/>
			<path style="fill:none;" d="M131.171,221.736c-0.554-0.596-1.116-1.19-1.664-1.786c-8.246,12.046-15.42,23.93-21.322,35.351
				c8.111,1.584,16.537,2.966,25.229,4.132C132.266,247.196,131.518,234.584,131.171,221.736z"/>
			<circle style="fill:#1B2327;" cx="205.462" cy="205.462" r="27.947"/>
			<path style="fill:#D09220;" d="M146.954,196.26c-3.365,4.272-6.624,8.548-9.748,12.816c3.177,3.496,6.466,6.987,9.836,10.467
				c-0.111-4.663-0.169-9.358-0.169-14.082C146.874,202.381,146.906,199.316,146.954,196.26z"/>
			<path style="fill:#D09220;" d="M214.627,146.952c-4.263-3.352-8.526-6.594-12.772-9.701c-3.479,3.16-6.96,6.433-10.435,9.79
				c4.65-0.111,9.333-0.168,14.042-0.168C208.531,146.873,211.583,146.905,214.627,146.952z"/>
			<path style="fill:#D09220;" d="M263.971,214.662c3.365-4.271,6.623-8.547,9.746-12.813c-3.177-3.495-6.465-6.985-9.834-10.465
				c0.111,4.662,0.169,9.357,0.169,14.079C264.051,208.542,264.019,211.606,263.971,214.662z"/>
			<path style="fill:#D09220;" d="M215.338,131.032c6.966,5.266,13.918,10.829,20.812,16.655c8.55,0.453,16.962,1.086,25.178,1.91
				c0.74,7.372,1.324,14.903,1.765,22.548c5.783,5.637,11.346,11.33,16.663,17.046c-0.347-12.848-1.096-25.462-2.243-37.7
				c8.691,1.166,17.117,2.547,25.228,4.132c2.605-5.041,4.962-9.992,7.053-14.826c-10.841-2.231-22.241-4.103-34.071-5.593
				c-2.008-15.934-4.708-31.082-8.047-45.138c-4.664,2.308-9.507,4.989-14.49,8.013c2.499,11.14,4.591,22.97,6.249,35.334
				C245.171,132.075,230.399,131.278,215.338,131.032z"/>
			<path style="fill:#D09220;" d="M312.794,253.195c-11.124,2.494-22.938,4.582-35.282,6.237
				c1.337-14.258,2.135-29.027,2.381-44.084c-5.257,6.952-10.821,13.902-16.655,20.803c-0.453,8.549-1.086,16.96-1.91,25.176
				c-7.375,0.74-14.91,1.324-22.558,1.766c-5.661,5.802-11.361,11.362-17.067,16.662c12.858-0.347,25.483-1.095,37.73-2.244
				c-1.167,8.703-2.551,17.138-4.138,25.258c5.079,2.638,10.03,5.004,14.82,7.08c2.236-10.858,4.112-22.277,5.605-34.129
				c15.9-2.003,31.018-4.697,45.048-8.026c-1.413-2.868-2.964-5.813-4.666-8.831C315.046,256.988,313.942,255.099,312.794,253.195z"
				/>
			<path style="fill:#D09220;" d="M131.033,195.573c5.257-6.951,10.82-13.901,16.654-20.802c0.453-8.549,1.086-16.96,1.91-25.175
				c7.375-0.74,14.909-1.324,22.557-1.766c5.661-5.802,11.361-11.362,17.067-16.662c-12.858,0.347-25.483,1.095-37.729,2.244
				c1.167-8.702,2.551-17.138,4.137-25.258c-5.079-2.638-10.03-5.004-14.82-7.081c-2.236,10.859-4.112,22.277-5.605,34.129
				c-15.901,2.003-31.02,4.697-45.05,8.026c1.413,2.868,2.964,5.813,4.666,8.831c1.057,1.875,2.161,3.766,3.309,5.668
				c11.125-2.494,22.939-4.583,35.285-6.238C132.077,165.749,131.279,180.516,131.033,195.573z"/>
			<path style="fill:#D09220;" d="M195.586,279.892c-6.966-5.266-13.919-10.829-20.812-16.655
				c-8.549-0.453-16.961-1.086-25.177-1.91c-0.739-7.372-1.323-14.902-1.765-22.546c-5.783-5.636-11.346-11.328-16.662-17.044
				c0.347,12.847,1.095,25.46,2.243,37.696c-8.692-1.166-17.118-2.547-25.229-4.132c-2.605,5.041-4.962,9.992-7.052,14.826
				c10.841,2.231,22.241,4.103,34.072,5.593c2.007,15.934,4.708,31.082,8.047,45.138c4.663-2.309,9.507-4.989,14.489-8.013
				c-2.499-11.14-4.591-22.97-6.249-35.334C165.753,278.849,180.525,279.646,195.586,279.892z"/>
			<path style="fill:#D09220;" d="M196.296,263.972c4.263,3.352,8.526,6.595,12.773,9.702c3.479-3.16,6.96-6.434,10.435-9.791
				c-4.649,0.111-9.332,0.168-14.041,0.168C202.394,264.051,199.34,264.019,196.296,263.972z"/>
			<path style="fill:#D09220;" d="M244.975,342.569c-11.062,32.826-25.833,52.424-39.513,52.424
				c-13.679,0-28.451-19.598-39.514-52.424c-1.78-5.283-3.439-10.83-4.984-16.596c-4.937,2.866-9.753,5.407-14.425,7.622
				c1.357,4.848,2.792,9.547,4.313,14.062c13.748,40.798,33.142,63.267,54.609,63.267s40.861-22.469,54.609-63.267
				c2.634-7.816,5.024-16.156,7.161-24.936c-4.761-1.994-9.687-4.273-14.747-6.812C250.277,325.354,247.77,334.277,244.975,342.569z
				"/>
			<path style="fill:#D09220;" d="M347.657,150.853c-7.819-2.635-16.162-5.026-24.945-7.163c-0.299,0.714-0.595,1.426-0.906,2.147
				c-1.781,4.127-3.752,8.334-5.89,12.603c9.443,2.208,18.364,4.715,26.654,7.509c32.826,11.062,52.424,25.833,52.424,39.513
				s-19.598,28.451-52.424,39.513c-5.272,1.777-10.808,3.434-16.563,4.975c0.488,0.841,0.974,1.681,1.445,2.517
				c2.302,4.085,4.361,8.057,6.181,11.908c4.834-1.354,9.521-2.786,14.024-4.303c40.799-13.75,63.267-33.144,63.267-54.61
				S388.456,164.602,347.657,150.853z"/>
			<path style="fill:#D09220;" d="M95.008,252.483c-9.443-2.208-18.363-4.715-26.653-7.508
				c-32.826-11.062-52.424-25.833-52.424-39.513s19.598-28.451,52.424-39.513c5.272-1.776,10.807-3.433,16.561-4.975
				c-0.488-0.841-0.974-1.681-1.445-2.517c-2.302-4.085-4.361-8.056-6.181-11.907c-4.834,1.354-9.52,2.785-14.022,4.302
				c-40.799,13.75-63.267,33.144-63.267,54.61s22.469,40.86,63.267,54.609c7.819,2.635,16.161,5.026,24.945,7.163
				c0.298-0.713,0.594-1.426,0.906-2.147C90.898,260.96,92.87,256.752,95.008,252.483z"/>
			<path style="fill:#D09220;" d="M165.95,68.355c11.062-32.826,25.833-52.424,39.513-52.424s28.451,19.598,39.513,52.424
				c1.78,5.283,3.44,10.83,4.984,16.596c4.938-2.866,9.753-5.407,14.426-7.623c-1.356-4.847-2.792-9.546-4.313-14.061
				C246.324,22.469,226.93,0,205.464,0s-40.861,22.469-54.609,63.267c-2.634,7.816-5.024,16.156-7.161,24.937
				c4.761,1.993,9.687,4.273,14.747,6.812C160.648,85.57,163.154,76.647,165.95,68.355z"/>
			<path style="fill:#D43D21;" d="M326.007,249.95c-9.136-15.733-21.269-32.349-35.67-48.982
				c10.088-14.503,18.722-28.84,25.579-42.528c2.138-4.269,4.109-8.476,5.89-12.603c0.312-0.722,0.607-1.434,0.906-2.147
				c13.708-32.762,13.959-57.327,0.643-69.304c-5.441-4.895-12.701-7.376-21.577-7.376c-10.549,0-23.302,3.639-37.393,10.319
				c-4.672,2.216-9.488,4.756-14.426,7.623c-15.496,8.997-32.143,21.097-48.978,35.66c-11.412-7.935-22.76-15.009-33.819-21.037
				c-2.952-1.609-5.856-3.12-8.722-4.558c-5.061-2.538-9.986-4.818-14.747-6.812c-16.552-6.932-31.177-10.534-43.056-10.534
				c-11.512,0-20.344,3.33-26.251,9.898c-10.681,11.875-9.58,32.564,2.905,58.982c1.82,3.851,3.879,7.822,6.181,11.907
				c0.471,0.836,0.957,1.676,1.445,2.517c9.136,15.733,21.269,32.349,35.67,48.982c-10.088,14.503-18.722,28.839-25.578,42.527
				c-2.138,4.269-4.109,8.476-5.89,12.604c-0.312,0.721-0.607,1.434-0.906,2.147c-13.707,32.762-13.959,57.328-0.644,69.305
				c5.443,4.894,12.703,7.376,21.578,7.376c10.549,0,23.301-3.639,37.393-10.32c4.672-2.215,9.488-4.756,14.425-7.622
				c15.496-8.997,32.143-21.097,48.978-35.659c11.411,7.935,22.759,15.009,33.818,21.037c2.953,1.609,5.857,3.121,8.724,4.559
				c5.061,2.539,9.986,4.818,14.747,6.812c16.551,6.931,31.175,10.533,43.054,10.533c11.511,0,20.343-3.33,26.251-9.898
				c10.681-11.874,9.579-32.563-2.905-58.981c-1.82-3.851-3.879-7.823-6.181-11.908C326.981,251.631,326.495,250.791,326.007,249.95
				z M253.184,98.079c4.982-3.023,9.826-5.705,14.49-8.013c13.089-6.479,24.76-10.03,34.104-10.03c5.56,0,9.889,1.357,12.866,4.035
				c8.855,7.964,7.062,29.125-4.798,56.604c-0.018,0.041-0.036,0.082-0.054,0.122c-2.09,4.834-4.448,9.785-7.053,14.826
				c-5.902,11.421-13.078,23.305-21.323,35.351c-0.547-0.595-1.108-1.188-1.661-1.783c-5.316-5.717-10.879-11.41-16.663-17.046
				c-4.859-4.735-9.863-9.433-15.013-14.065c-3.948-3.551-7.93-7.012-11.93-10.393c-6.893-5.826-13.846-11.389-20.812-16.655
				c-1.155-0.873-2.31-1.745-3.465-2.602C226.106,116.289,240.123,106.004,253.184,98.079z M219.503,263.883
				c-3.474,3.357-6.955,6.63-10.435,9.791c-4.247-3.107-8.51-6.35-12.773-9.702c-8.284-6.513-16.569-13.464-24.74-20.813
				c-8.604-7.739-16.796-15.646-24.513-23.615c-3.37-3.48-6.659-6.971-9.836-10.467c3.124-4.268,6.382-8.544,9.748-12.816
				c6.524-8.282,13.476-16.548,20.811-24.704c7.758-8.625,15.687-16.815,23.656-24.516c3.474-3.357,6.955-6.63,10.435-9.79
				c4.247,3.107,8.509,6.35,12.772,9.701c8.284,6.513,16.568,13.463,24.739,20.812c8.605,7.74,16.798,15.648,24.516,23.619
				c3.37,3.48,6.658,6.97,9.834,10.465c-3.123,4.267-6.381,8.542-9.746,12.813c-6.524,8.283-13.477,16.55-20.813,24.706
				C235.4,247.993,227.472,256.183,219.503,263.883z M98.129,157.729c-1.148-1.903-2.252-3.793-3.309-5.668
				c-1.701-3.018-3.252-5.963-4.666-8.831c-10.793-21.905-13.127-39.12-6.084-46.95c3.332-3.705,8.906-5.583,16.566-5.583
				c10.929,0,24.709,3.676,40.173,10.378c4.79,2.076,9.741,4.443,14.82,7.081c11.282,5.859,23.191,13.057,35.346,21.381
				c-0.585,0.538-1.169,1.089-1.754,1.632c-5.706,5.3-11.406,10.86-17.067,16.662c-4.727,4.845-9.427,9.846-14.075,15.014
				c-3.553,3.951-7.014,7.931-10.392,11.926c-5.834,6.9-11.397,13.851-16.654,20.802c-0.883,1.167-1.766,2.335-2.631,3.503
				C116.424,185.029,106.173,171.06,98.129,157.729z M157.741,312.845c-4.982,3.023-9.826,5.704-14.489,8.013
				c-13.089,6.479-24.76,10.03-34.104,10.03c-5.561,0-9.89-1.357-12.867-4.035c-8.855-7.965-7.062-29.125,4.799-56.604
				c0.018-0.041,0.036-0.082,0.054-0.122c2.09-4.834,4.447-9.785,7.052-14.826c5.901-11.42,13.076-23.304,21.322-35.351
				c0.548,0.596,1.11,1.19,1.664,1.786c5.316,5.716,10.879,11.409,16.662,17.044c4.858,4.735,9.861,9.431,15.011,14.063
				c3.949,3.551,7.93,7.012,11.93,10.393c6.893,5.826,13.846,11.389,20.812,16.655c1.155,0.873,2.31,1.745,3.465,2.602
				C184.816,294.635,170.801,304.92,157.741,312.845z M326.852,314.644c-3.332,3.704-8.905,5.583-16.565,5.583
				c-10.928,0-24.708-3.675-40.171-10.377c-4.79-2.076-9.742-4.442-14.82-7.08c-11.282-5.859-23.191-13.057-35.347-21.382
				c0.585-0.538,1.169-1.089,1.754-1.632c5.706-5.3,11.406-10.86,17.067-16.662c4.727-4.844,9.427-9.846,14.075-15.014
				c3.554-3.951,7.014-7.932,10.393-11.928c5.834-6.901,11.398-13.852,16.655-20.803c0.882-1.167,1.764-2.333,2.628-3.5
				c11.977,14.047,22.228,28.016,30.273,41.347c1.148,1.903,2.252,3.793,3.309,5.668c1.701,3.018,3.252,5.963,4.666,8.831
				C331.562,289.6,333.895,306.814,326.852,314.644z"/>
		</g>
	</g>
</g>
<g>
</g>
<g>
</g>
<g>
</g>
<g>
</g>
<g>
</g>
<g>
</g>
<g>
</g>
<g>
</g>
<g>
</g>
<g>
</g>
<g>
</g>
<g>
</g>
<g>
</g>
<g>
</g>
<g>
</g>
</svg>
