<?xml version="1.0" encoding="iso-8859-1"?>
<!-- Generator: Adobe Illustrator 19.0.0, SVG Export Plug-In . SVG Version: 6.00 Build 0)  -->
<svg version="1.1" id="Capa_1" xmlns="http://www.w3.org/2000/svg" xmlns:xlink="http://www.w3.org/1999/xlink" x="0px" y="0px"
	 viewBox="0 0 398.87 398.87" style="enable-background:new 0 0 398.87 398.87;" xml:space="preserve">
<g>
	<g id="Guides_For_Artboard_26_">
	</g>
	<g id="Artwork_25_">
	</g>
	<g id="Layer_2_25_">
		<g>
			<path style="fill:#F7F1E6;" d="M354.204,196.999c8.246-1.903,14.4-9.276,14.4-18.101v-1.859c0-10.269-8.324-18.593-18.593-18.593
				h-50.666c-10.269,0-18.593,8.324-18.593,18.593v1.859c0,8.824,6.154,16.197,14.4,18.101H25.056v36.706h350.521v-36.706H354.204z"
				/>
			<path style="fill:#2B3237;" d="M387.224,58.13H232.955c-6.433,0-11.647,5.215-11.647,11.646c0,0.084,0.011,0.165,0.013,0.248
				c-0.004,0.083-0.013,0.164-0.013,0.248v44.298h11.156V81.399c0.164,0.007,0.325,0.024,0.491,0.024h142.622v115.576v36.706H25.056
				v-36.706V128.27c0-6.919-5.609-12.528-12.528-12.528S0,121.351,0,128.27v118.112v81.831c0,6.919,5.609,12.528,12.528,12.528
				s12.528-5.609,12.528-12.528v-69.153h350.521v70.035c0,6.432,5.215,11.646,11.646,11.646c6.433,0,11.647-5.215,11.647-11.646
				V69.774C398.871,63.345,393.656,58.13,387.224,58.13z"/>
			<path style="fill:#E6A123;" d="M218.31,114.569c-7.273,0-13.17,5.897-13.17,13.171c0,7.272,5.896,13.169,13.17,13.169h15.495
				c7.273,0,13.17-5.896,13.17-13.169c0-7.273-5.896-13.171-13.17-13.171h-1.342h-11.156H218.31z"/>
			<path style="fill:#D43D21;" d="M97.125,120.424h17.889v17.89c0,6.225,5.047,11.271,11.271,11.271h1.027h6.508
				c6.226,0,11.269-5.046,11.269-11.271v-17.89h17.891c6.224,0,11.268-5.044,11.268-11.267v-7.539
				c0-6.222-5.044-11.267-11.268-11.267h-17.891V72.461c0-6.224-5.043-11.269-11.269-11.269h-6.508h-1.027
				c-6.224,0-11.271,5.045-11.271,11.269v17.889H97.125c-6.221,0-11.267,5.045-11.267,11.267v7.539
				C85.858,115.38,90.904,120.424,97.125,120.424z"/>
		</g>
	</g>
</g>
<g>
</g>
<g>
</g>
<g>
</g>
<g>
</g>
<g>
</g>
<g>
</g>
<g>
</g>
<g>
</g>
<g>
</g>
<g>
</g>
<g>
</g>
<g>
</g>
<g>
</g>
<g>
</g>
<g>
</g>
</svg>
