<?xml version="1.0" encoding="iso-8859-1"?>
<!-- Generator: Adobe Illustrator 19.0.0, SVG Export Plug-In . SVG Version: 6.00 Build 0)  -->
<svg version="1.1" id="Capa_1" xmlns="http://www.w3.org/2000/svg" xmlns:xlink="http://www.w3.org/1999/xlink" x="0px" y="0px"
	 viewBox="0 0 363.479 363.479" style="enable-background:new 0 0 363.479 363.479;" xml:space="preserve">
<g>
	<g id="Guides_For_Artboard_49_">
	</g>
	<g id="Artwork_48_">
	</g>
	<g id="Layer_2_48_">
		<path style="fill:#77A7A2;" d="M31.024,312.945L4.872,339.097c-5.578,5.578-5.578,14.621,0,20.199s14.62,5.578,20.198,0
			l26.152-26.152c-4.196-2.176-8.137-5.02-11.657-8.54C36.043,321.082,33.2,317.142,31.024,312.945z"/>
		<path style="fill:#1B2327;" d="M353.365,59.263c12.859-13.833,12.564-35.471-0.9-48.936C339-3.137,317.362-3.433,303.529,9.427
			l-0.024-0.024L251.617,61.29l49.883,49.883l51.887-51.887L353.365,59.263z"/>
		<path style="fill:#81B6B2;" d="M38.94,257.822c-14.92,14.92-17.764,37.338-8.541,55.123c2.176,4.197,5.02,8.137,8.541,11.658
			s7.461,6.364,11.657,8.54c17.784,9.223,40.202,6.379,55.123-8.541l162.762-162.595l-66.75-66.875L38.94,257.822z"/>
		<path style="fill:#2B3237;" d="M231.404,40.327c-8.898-8.898-23.325-8.899-32.224,0l-10.691,10.691
			c-8.899,8.898-8.899,23.325,0,32.224l91.81,91.81c8.898,8.898,23.326,8.898,32.225,0l10.691-10.692
			c8.898-8.898,8.898-23.325,0-32.224l-20.964-20.964l-49.883-49.883L231.404,40.327z"/>
	</g>
</g>
<g>
</g>
<g>
</g>
<g>
</g>
<g>
</g>
<g>
</g>
<g>
</g>
<g>
</g>
<g>
</g>
<g>
</g>
<g>
</g>
<g>
</g>
<g>
</g>
<g>
</g>
<g>
</g>
<g>
</g>
</svg>
