<?xml version="1.0" encoding="iso-8859-1"?>
<!-- Generator: Adobe Illustrator 19.0.0, SVG Export Plug-In . SVG Version: 6.00 Build 0)  -->
<svg version="1.1" id="Capa_1" xmlns="http://www.w3.org/2000/svg" xmlns:xlink="http://www.w3.org/1999/xlink" x="0px" y="0px"
	 viewBox="0 0 384.962 384.962" style="enable-background:new 0 0 384.962 384.962;" xml:space="preserve">
<g>
	<g id="Guides_For_Artboard_29_">
	</g>
	<g id="Artwork_28_">
	</g>
	<g id="Layer_2_28_">
		<g>
			<path style="fill:#E0DCD3;" d="M277.734,49.403c0-10.063-8.158-18.221-18.222-18.221H134.331
				c-10.063,0-18.221,8.157-18.221,18.221v49.029h161.624L277.734,49.403L277.734,49.403z M219.002,70.477
				c0,3.108-2.52,5.629-5.63,5.629h-8.938v8.938c0,3.11-2.52,5.631-5.629,5.631h-3.252h-0.513c-3.11,0-5.632-2.521-5.632-5.631
				v-8.938h-8.938c-3.107,0-5.628-2.521-5.628-5.629v-3.766c0-3.108,2.521-5.63,5.628-5.63h8.938v-8.938
				c0-3.109,2.521-5.63,5.632-5.63h0.513h3.252c3.109,0,5.629,2.521,5.629,5.63v8.938h8.938c3.11,0,5.63,2.521,5.63,5.63V70.477z"/>
			<path style="fill:#E74424;" d="M213.372,61.082h-8.938v-8.938c0-3.109-2.52-5.63-5.629-5.63h-3.252h-0.513
				c-3.11,0-5.632,2.521-5.632,5.63v8.938h-8.938c-3.107,0-5.628,2.521-5.628,5.63v3.766c0,3.108,2.521,5.629,5.628,5.629h8.938
				v8.938c0,3.11,2.521,5.631,5.632,5.631h0.513h3.252c3.109,0,5.629-2.521,5.629-5.631v-8.938h8.938c3.11,0,5.63-2.521,5.63-5.629
				v-3.766C219.002,63.603,216.482,61.082,213.372,61.082z"/>
			<path style="fill:#E74424;" d="M366.74,98.432h-89.006H116.11H18.221C8.158,98.432,0,106.589,0,116.653v218.906
				c0,10.063,8.158,18.221,18.221,18.221H366.74c10.063,0,18.222-8.157,18.222-18.221V116.653
				C384.962,106.59,376.803,98.432,366.74,98.432z M352.115,142.568c7.883,0,14.273,6.391,14.273,14.272
				c0,7.883-6.391,14.272-14.273,14.272s-14.272-6.39-14.272-14.272C337.843,148.959,344.232,142.568,352.115,142.568z
				 M352.115,185.994c7.883,0,14.273,6.391,14.273,14.273c0,7.882-6.391,14.271-14.273,14.271s-14.272-6.39-14.272-14.271
				C337.843,192.384,344.232,185.994,352.115,185.994z M309.752,142.568c7.882,0,14.272,6.391,14.272,14.272
				c0,7.883-6.391,14.272-14.272,14.272c-7.883,0-14.273-6.39-14.273-14.272C295.478,148.959,301.869,142.568,309.752,142.568z
				 M309.752,185.994c7.882,0,14.272,6.391,14.272,14.273c0,7.882-6.391,14.271-14.272,14.271c-7.883,0-14.273-6.39-14.273-14.271
				C295.478,192.384,301.869,185.994,309.752,185.994z M274.538,248.328v59.666c0,7.529-6.104,13.633-13.633,13.633H46.62
				c-7.528,0-13.633-6.104-13.633-13.633V144.216c0-7.529,6.104-13.631,13.633-13.631h87.711h125.182h1.392
				c7.529,0,13.633,6.102,13.633,13.631v97.979V248.328z M354.242,321.627H306.26c-6.037,0-10.932-4.895-10.932-10.933
				s4.895-10.933,10.932-10.933h47.982c6.038,0,10.933,4.895,10.933,10.933S360.28,321.627,354.242,321.627z M355.304,290.651
				h-47.982c-6.037,0-10.933-4.895-10.933-10.933c0-6.039,4.896-10.933,10.933-10.933h47.982c6.038,0,10.933,4.894,10.933,10.933
				S361.343,290.651,355.304,290.651z M356.367,259.675h-47.982c-6.037,0-10.933-4.895-10.933-10.933s4.896-10.933,10.933-10.933
				h47.982c6.038,0,10.933,4.895,10.933,10.933S362.405,259.675,356.367,259.675z"/>
			<polygon style="fill:#F7F1E6;" points="149.45,269.211 153.703,248.376 148.17,248.376 			"/>
			<path style="fill:#F7F1E6;" d="M78.932,205.942c0.451-1.335,1.748-2.195,3.157-2.075c1.403,0.115,2.548,1.173,2.773,2.563
				l5.797,35.616l9.948,0.008l8.567-35.844c0.335-1.397,1.628-2.356,3.029-2.353c1.436,0.021,2.664,1.037,2.955,2.442l7.419,35.771
				l2.943,0.003l12.115-66.601c0.277-1.524,1.634-2.611,3.197-2.511c1.548,0.091,2.784,1.324,2.879,2.872l4.07,66.258l7.201,0.006
				l5.616-27.514c0.302-1.476,1.602-2.518,3.133-2.45c1.504,0.064,2.74,1.21,2.916,2.705l3.201,27.271l3.231,0.003l12.778-66.441
				c0.292-1.517,1.669-2.59,3.205-2.48c1.54,0.098,2.768,1.324,2.865,2.865l4.193,66.075l6.021,0.005l3.72-19.098
				c0.273-1.406,1.484-2.436,2.916-2.479c1.467-0.039,2.702,0.91,3.062,2.297l4.989,19.292l3.754,0.003l2.793-11.077
				c0.316-1.256,1.389-2.178,2.678-2.302c1.285-0.132,2.519,0.574,3.069,1.747l5.474,11.643l39.938,0.033v-97.979
				c0-7.529-6.104-13.631-13.633-13.631h-1.393H134.331H46.62c-7.528,0-13.633,6.102-13.633,13.631v97.781l33.767,0.027
				L78.932,205.942z"/>
			<polygon style="fill:#F7F1E6;" points="124.147,249.634 124.376,248.376 123.886,248.376 			"/>
			<polygon style="fill:#F7F1E6;" points="94.69,266.81 99.096,248.376 91.69,248.376 			"/>
			<polygon style="fill:#F7F1E6;" points="218.734,249.499 219.017,248.376 218.444,248.376 			"/>
			<polygon style="fill:#F7F1E6;" points="171.076,252.547 171.878,248.376 170.587,248.376 			"/>
			<polygon style="fill:#F7F1E6;" points="197.605,265.454 200.931,248.376 196.521,248.376 			"/>
			<polygon style="fill:#F7F1E6;" points="80.795,219.6 73.223,242.031 84.446,242.04 			"/>
			<polygon style="fill:#F7F1E6;" points="139.143,201.452 131.753,242.079 141.639,242.087 			"/>
			<polygon style="fill:#F7F1E6;" points="162.787,234.532 161.241,242.103 163.676,242.105 			"/>
			<path style="fill:#F7F1E6;" d="M267.843,248.376H225.34l-3.597,14.263c-0.342,1.358-1.562,2.312-2.962,2.316
				c-0.004,0-0.007,0-0.01,0c-1.397,0-2.618-0.945-2.968-2.298l-3.694-14.281h-4.932l-8.113,41.658
				c-0.294,1.513-1.659,2.582-3.206,2.474c-1.539-0.1-2.765-1.326-2.862-2.865l-2.619-41.267h-12.256l-4.769,24.797
				c-0.286,1.485-1.565,2.535-3.123,2.485c-1.512-0.056-2.756-1.205-2.934-2.707l-2.885-24.575h-4.451l-9.145,44.798
				c-0.293,1.437-1.556,2.453-3.002,2.453c-0.071,0-0.143-0.002-0.216-0.007c-1.535-0.107-2.752-1.335-2.847-2.871l-2.726-44.373
				h-11.419l-3.248,17.855c-0.262,1.443-1.511,2.499-2.979,2.518c-0.013,0-0.024,0-0.038,0c-1.451,0-2.706-1.019-3.001-2.443
				l-3.719-17.93h-12.222l-8.3,34.725c-0.34,1.42-1.652,2.38-3.095,2.352c-1.46-0.054-2.68-1.13-2.914-2.571l-5.615-34.505h-52.49
				v59.618c0,7.529,6.104,13.633,13.633,13.633h214.289c7.529,0,13.633-6.104,13.633-13.633v-59.666h-6.643L267.843,248.376z"/>
			<polygon style="fill:#F7F1E6;" points="209.297,237.499 208.392,242.141 210.498,242.143 			"/>
			<polygon style="fill:#F7F1E6;" points="187.337,200.466 179.326,242.118 189.981,242.127 			"/>
			<polygon style="fill:#F7F1E6;" points="227.227,240.893 226.909,242.157 227.822,242.158 			"/>
			<polygon style="fill:#F7F1E6;" points="111.945,220.998 106.911,242.058 116.314,242.066 			"/>
			<polygon style="fill:#1B2327;" points="274.446,242.04 32.987,241.998 32.987,248.253 32.987,248.376 274.477,248.376 			"/>
			<line style="fill:none;" x1="32.987" y1="241.998" x2="66.721" y2="242.121"/>
			<polygon style="fill:#1B2327;" points="234.616,242.196 274.538,242.196 234.6,242.163 			"/>
			<path style="fill:#2B3237;" d="M234.6,242.033L234.6,242.033l-5.474-11.513c-0.551-1.173-1.784-1.879-3.069-1.747
				c-1.289,0.124-2.361,1.046-2.678,2.302l-2.793,11.077l-1.569,6.224l-0.283,1.123l-0.29-1.123l-1.611-6.227l-4.989-19.292
				c-0.359-1.387-1.595-2.336-3.062-2.297c-1.432,0.043-2.643,1.072-2.916,2.479l-3.72,19.098l-1.215,6.239l-3.326,17.078
				l-1.084-17.078l-0.396-6.244l-4.193-66.075c-0.098-1.541-1.325-2.768-2.865-2.865c-1.536-0.109-2.913,0.964-3.205,2.48
				l-12.778,66.441l-1.205,6.263l-0.802,4.171l-0.489-4.171l-0.735-6.266l-3.201-27.271c-0.176-1.495-1.412-2.641-2.916-2.705
				c-1.531-0.067-2.831,0.975-3.133,2.45l-5.616,27.514l-1.282,6.277l-4.253,20.835l-1.28-20.835l-0.386-6.283l-4.07-66.258
				c-0.095-1.548-1.331-2.781-2.879-2.872c-1.563-0.101-2.92,0.986-3.197,2.511l-12.115,66.601l-1.146,6.302l-0.229,1.259
				l-0.261-1.259l-1.308-6.305l-7.419-35.771c-0.291-1.405-1.52-2.421-2.955-2.442c-1.401-0.004-2.694,0.955-3.029,2.353
				l-8.567,35.844l-1.512,6.322l-4.406,18.435l-3-18.435l-1.03-6.33l-5.797-35.616c-0.226-1.39-1.37-2.447-2.773-2.563
				c-1.409-0.12-2.706,0.74-3.157,2.075l-12.179,36.083l-33.767-0.027v6.378h35.738c1.315,0,2.682-0.962,3.103-2.209l1.396-4.136
				l7.571-22.431l3.651,22.439l1.031,6.336l5.615,34.505c0.234,1.441,1.454,2.518,2.914,2.571c1.442,0.028,2.755-0.932,3.095-2.352
				l8.3-34.725l1.51-6.317l5.034-21.061l4.369,21.068l1.309,6.31l3.719,17.93c0.295,1.425,1.55,2.443,3.001,2.443
				c0.014,0,0.025,0,0.038,0c1.468-0.019,2.717-1.074,2.979-2.518l3.248-17.855l1.146-6.297l7.391-40.627l2.496,40.635l0.387,6.289
				l2.726,44.373c0.095,1.536,1.312,2.764,2.847,2.871c0.073,0.005,0.145,0.007,0.216,0.007c1.446,0,2.709-1.017,3.002-2.453
				l9.145-44.798l1.28-6.272l1.546-7.571l0.889,7.573l0.736,6.271l2.885,24.575c0.178,1.502,1.422,2.651,2.934,2.707
				c1.558,0.05,2.837-1,3.123-2.485l4.769-24.797l1.204-6.258l8.011-41.652l2.645,41.661l0.396,6.249l2.619,41.267
				c0.098,1.539,1.323,2.766,2.862,2.865c1.547,0.108,2.912-0.961,3.206-2.474l8.113-41.658l1.214-6.234l0.904-4.643l1.201,4.645
				l1.612,6.232l3.694,14.281c0.35,1.353,1.57,2.298,2.968,2.298c0.003,0,0.006,0,0.01,0c1.4-0.005,2.62-0.958,2.962-2.316
				l3.597-14.263l1.568-6.219l0.318-1.264l0.595,1.265l2.072,4.408c0.505,1.076,1.587,1.762,2.774,1.762h35.227h6.643v-6.33
				L234.6,242.033z"/>
			<circle style="fill:#F7F1E6;" cx="309.752" cy="156.841" r="14.272"/>
			<circle style="fill:#F7F1E6;" cx="352.115" cy="156.841" r="14.272"/>
			<circle style="fill:#F7F1E6;" cx="309.752" cy="200.266" r="14.272"/>
			<circle style="fill:#F7F1E6;" cx="352.115" cy="200.266" r="14.272"/>
			<path style="fill:#1B2327;" d="M356.367,237.81h-47.982c-6.037,0-10.933,4.895-10.933,10.933s4.896,10.933,10.933,10.933h47.982
				c6.038,0,10.933-4.895,10.933-10.933S362.405,237.81,356.367,237.81z"/>
			<path style="fill:#1B2327;" d="M355.304,268.786h-47.982c-6.037,0-10.933,4.894-10.933,10.933
				c0,6.038,4.896,10.933,10.933,10.933h47.982c6.038,0,10.933-4.895,10.933-10.933
				C366.237,273.679,361.343,268.786,355.304,268.786z"/>
			<path style="fill:#1B2327;" d="M354.242,299.761H306.26c-6.037,0-10.932,4.895-10.932,10.933s4.895,10.933,10.932,10.933h47.982
				c6.038,0,10.933-4.895,10.933-10.933S360.28,299.761,354.242,299.761z"/>
		</g>
	</g>
</g>
<g>
</g>
<g>
</g>
<g>
</g>
<g>
</g>
<g>
</g>
<g>
</g>
<g>
</g>
<g>
</g>
<g>
</g>
<g>
</g>
<g>
</g>
<g>
</g>
<g>
</g>
<g>
</g>
<g>
</g>
</svg>
