<?xml version="1.0" encoding="iso-8859-1"?>
<!-- Generator: Adobe Illustrator 19.0.0, SVG Export Plug-In . SVG Version: 6.00 Build 0)  -->
<svg version="1.1" id="Capa_1" xmlns="http://www.w3.org/2000/svg" xmlns:xlink="http://www.w3.org/1999/xlink" x="0px" y="0px"
	 viewBox="0 0 379.328 379.328" style="enable-background:new 0 0 379.328 379.328;" xml:space="preserve">
<g>
	<g id="Guides_For_Artboard_2_">
	</g>
	<g id="Artwork_2_">
	</g>
	<g id="Layer_2_2_">
		<g>
			<path style="fill:#E0DCD3;" d="M332.126,0H47.204C21.134,0,0,21.134,0,47.204v284.921c0,26.07,21.134,47.203,47.204,47.203
				h284.922c26.07,0,47.202-21.133,47.202-47.203V47.204C379.328,21.134,358.196,0,332.126,0z M355.31,251.623v62.461
				c0,22.769-18.456,41.226-41.224,41.226H65.245c-22.769,0-41.227-18.457-41.227-41.226v-4.666
				c-0.457,0.076-0.924,0.126-1.403,0.126c-4.64,0-8.401-3.762-8.401-8.401v-33.604c0-4.64,3.761-8.401,8.401-8.401
				c0.479,0,0.946,0.05,1.403,0.126v-7.641v-5.732V140.686v-0.775v-3.232v-14.02c-0.457,0.078-0.924,0.127-1.403,0.127
				c-4.64,0-8.401-3.762-8.401-8.401V80.781c0-4.64,3.761-8.401,8.401-8.401c0.479,0,0.946,0.049,1.403,0.127v-7.262
				c0-22.768,18.458-41.226,41.227-41.226h248.841c22.768,0,41.224,18.458,41.224,41.226v71.434V251.623z"/>
			<path style="fill:#F7F1E6;" d="M158.778,126.571c0-12.54,10.168-22.702,22.705-22.702h2.067h13.111
				c12.541,0,22.701,10.162,22.701,22.702v10.106h135.946V65.243c0-22.768-18.456-41.226-41.224-41.226H65.245
				c-22.769,0-41.227,18.458-41.227,41.226v7.262c3.97,0.669,6.998,4.114,6.998,8.274v33.604c0,4.16-3.028,7.605-6.998,8.274v14.02
				h134.76L158.778,126.571L158.778,126.571z"/>
			<path style="fill:#F7F1E6;" d="M219.363,259.227c0,12.538-10.16,22.703-22.701,22.703h-13.111h-2.067
				c-12.537,0-22.705-10.165-22.705-22.703v-7.604H24.018v7.641c3.97,0.67,6.998,4.115,6.998,8.275v33.604
				c0,4.16-3.028,7.605-6.998,8.275v4.666c0,22.769,18.458,41.226,41.227,41.226h248.841c22.768,0,41.224-18.457,41.224-41.226
				v-62.461H219.363V259.227z"/>
			<path style="fill:#E0DCD3;" d="M357.922,142.911l-138.559-0.5v20.196H255.4c12.54,0,22.701,10.163,22.701,22.696v15.187
				c0,12.534-10.161,22.696-22.701,22.696h-36.037v22.704l138.559,0.5V142.911z M329.894,209.056c-7.494,0-13.57-6.076-13.57-13.571
				c0-7.494,6.076-13.57,13.57-13.57c7.495,0,13.571,6.076,13.571,13.57C343.466,202.98,337.39,209.056,329.894,209.056z"/>
			<path style="fill:#E0DCD3;" d="M158.778,223.187h-36.037c-12.531,0-22.696-10.162-22.696-22.696v-15.187
				c0-12.533,10.165-22.696,22.696-22.696h36.037v-20.196H19.922v103.479h138.856L158.778,223.187L158.778,223.187z"/>
			<circle style="fill:#2B3237;" cx="329.894" cy="195.485" r="13.571"/>
			<path style="fill:#2B3237;" d="M31.017,114.384V80.78c0-4.16-3.028-7.605-6.998-8.274c-0.457-0.078-0.924-0.127-1.403-0.127
				c-4.64,0-8.401,3.762-8.401,8.401v33.604c0,4.64,3.761,8.401,8.401,8.401c0.479,0,0.946-0.049,1.403-0.127
				C27.989,121.989,31.017,118.544,31.017,114.384z"/>
			<path style="fill:#2B3237;" d="M31.017,301.143v-33.604c0-4.16-3.028-7.605-6.998-8.275c-0.457-0.076-0.924-0.126-1.403-0.126
				c-4.64,0-8.401,3.762-8.401,8.401v33.604c0,4.64,3.761,8.401,8.401,8.401c0.479,0,0.946-0.05,1.403-0.126
				C27.989,308.748,31.017,305.303,31.017,301.143z"/>
			<polygon style="fill:#FFFFFF;" points="219.363,142.411 355.31,142.411 355.31,139.91 355.31,136.678 219.363,136.678 			"/>
			<polygon style="fill:#FFFFFF;" points="158.778,142.411 158.778,136.678 24.018,136.678 24.018,139.91 24.018,142.411 			"/>
			<rect x="24.018" y="245.891" style="fill:#FFFFFF;" width="134.76" height="5.732"/>
			<rect x="219.363" y="245.891" style="fill:#FFFFFF;" width="135.946" height="5.732"/>
			<path style="fill:#D43D21;" d="M219.363,136.678v-10.106c0-12.54-10.16-22.702-22.701-22.702h-13.111h-2.067
				c-12.537,0-22.705,10.162-22.705,22.702v10.106v5.733v20.196h-36.037c-12.531,0-22.696,10.163-22.696,22.696v15.187
				c0,12.534,10.165,22.696,22.696,22.696h36.037v22.704v5.732v7.604c0,12.538,10.168,22.703,22.705,22.703h2.067h13.111
				c12.541,0,22.701-10.165,22.701-22.703v-7.604v-5.732v-22.704H255.4c12.54,0,22.701-10.162,22.701-22.696v-15.187
				c0-12.533-10.161-22.696-22.701-22.696h-36.037v-20.196V136.678z"/>
		</g>
	</g>
</g>
<g>
</g>
<g>
</g>
<g>
</g>
<g>
</g>
<g>
</g>
<g>
</g>
<g>
</g>
<g>
</g>
<g>
</g>
<g>
</g>
<g>
</g>
<g>
</g>
<g>
</g>
<g>
</g>
<g>
</g>
</svg>
