<?xml version="1.0" encoding="iso-8859-1"?>
<!-- Generator: Adobe Illustrator 19.0.0, SVG Export Plug-In . SVG Version: 6.00 Build 0)  -->
<svg version="1.1" id="Capa_1" xmlns="http://www.w3.org/2000/svg" xmlns:xlink="http://www.w3.org/1999/xlink" x="0px" y="0px"
	 viewBox="0 0 423.163 423.163" style="enable-background:new 0 0 423.163 423.163;" xml:space="preserve">
<g>
	<g id="Guides_For_Artboard_11_">
	</g>
	<g id="Artwork_11_">
	</g>
	<g id="Layer_2_11_">
		<g>
			<path style="fill:#81B6B2;" d="M206.678,132.113c-46.574,0-84.327,37.754-84.327,84.326c0,46.574,37.753,84.328,84.327,84.328
				s84.327-37.754,84.327-84.328C291.004,169.867,253.251,132.113,206.678,132.113z M206.678,256.335
				c-22.102,0-40.018-17.916-40.018-40.004c0-8.419,2.707-16.129,7.169-22.547c-1.428-2.854-2.25-6.063-2.25-9.471
				c0-11.724,9.503-21.228,21.227-21.228c9.12,0,16.873,5.762,19.877,13.835c19.231,2.907,34.012,19.355,34.012,39.41
				C246.695,238.418,228.779,256.335,206.678,256.335z"/>
			<path style="fill:#F7F1E6;" d="M227.924,80.744c-24.28,0-45.219,2.232-62.966,7.467C84.954,108.781,0,194.448,0,214.994
				s108.52,127.424,195.239,127.424c24.28,0,45.22-2.232,62.966-7.484c80.004-20.57,164.958-101.506,164.958-126.783
				S314.644,80.744,227.924,80.744z M206.678,300.768c-46.574,0-84.327-37.754-84.327-84.328c0-46.572,37.753-84.326,84.327-84.326
				s84.327,37.754,84.327,84.326C291.004,263.014,253.251,300.768,206.678,300.768z"/>
			<path style="fill:#2B3237;" d="M212.683,176.92c0.858,2.305,1.35,4.789,1.35,7.393c0,11.723-9.503,21.227-21.227,21.227
				c-8.315,0-15.494-4.793-18.977-11.756c-4.463,6.418-7.169,14.128-7.169,22.547c0,22.088,17.916,40.004,40.018,40.004
				s40.018-17.916,40.018-40.004C246.695,196.275,231.914,179.827,212.683,176.92z"/>
			<path style="fill:#F7F1E6;" d="M192.806,205.539c11.724,0,21.227-9.504,21.227-21.227c0-2.604-0.492-5.088-1.35-7.393
				c-3.005-8.073-10.758-13.835-19.877-13.835c-11.724,0-21.227,9.504-21.227,21.228c0,3.408,0.823,6.617,2.25,9.471
				C177.311,200.746,184.49,205.539,192.806,205.539z"/>
		</g>
	</g>
</g>
<g>
</g>
<g>
</g>
<g>
</g>
<g>
</g>
<g>
</g>
<g>
</g>
<g>
</g>
<g>
</g>
<g>
</g>
<g>
</g>
<g>
</g>
<g>
</g>
<g>
</g>
<g>
</g>
<g>
</g>
</svg>
