<?xml version="1.0" encoding="iso-8859-1"?>
<!-- Generator: Adobe Illustrator 19.0.0, SVG Export Plug-In . SVG Version: 6.00 Build 0)  -->
<svg version="1.1" id="Capa_1" xmlns="http://www.w3.org/2000/svg" xmlns:xlink="http://www.w3.org/1999/xlink" x="0px" y="0px"
	 viewBox="0 0 400.466 400.466" style="enable-background:new 0 0 400.466 400.466;" xml:space="preserve">
<g>
	<g id="Guides_For_Artboard_13_">
	</g>
	<g id="Artwork_13_">
	</g>
	<g id="Layer_2_13_">
		<g>
			<path style="fill:#2B3237;" d="M100.302,196.35V61.414c0-1.963,0.96-3.801,2.57-4.923c1.05-0.731,2.29-1.092,3.536-1.069
				c7.851-5.518,12.999-14.627,12.999-24.946c0-16.835-13.646-30.47-30.461-30.476C72.117,0,58.471,13.641,58.471,30.471
				c0,10.349,5.178,19.479,13.055,24.987v327.598c0,9.615,7.795,17.41,17.416,17.41c9.614,0,17.41-7.795,17.41-17.41V202.739
				c-0.71-0.251-1.419-0.499-2.129-0.761C101.867,201.108,100.302,198.861,100.302,196.35z"/>
			<path style="fill:#E74424;" d="M338.072,55.785c-17.719-6.543-35.367-9.724-53.954-9.724c-22.869,0-44.182,4.83-64.792,9.502
				c-20.885,4.733-40.611,9.205-62.138,9.206c-17.146,0.001-33.438-2.938-49.808-8.983c-0.641-0.237-1.308-0.353-1.973-0.364
				c-1.246-0.022-2.486,0.338-3.536,1.069c-1.61,1.122-2.57,2.96-2.57,4.923V196.35c0,2.512,1.565,4.759,3.922,5.629
				c0.71,0.262,1.419,0.51,2.129,0.761c17.008,6.022,33.987,8.964,51.833,8.964c22.871,0,44.184-4.831,64.794-9.503
				c20.885-4.733,40.611-9.204,62.135-9.204c1.536,0,3.064,0.032,4.588,0.079c15.476,0.481,30.314,3.4,45.213,8.902
				c1.84,0.681,3.897,0.416,5.509-0.705c1.61-1.122,2.57-2.96,2.57-4.923v-27.871V61.414
				C341.994,58.902,340.43,56.656,338.072,55.785z M267.098,132.842c0,6.54-5.303,11.842-11.845,11.842h-18.802v18.803
				c0,6.543-5.302,11.846-11.844,11.846h-6.841h-1.078c-6.541,0-11.847-5.303-11.847-11.846v-18.803h-18.802
				c-6.537,0-11.842-5.302-11.842-11.842v-7.922c0-6.54,5.305-11.843,11.842-11.843h18.802V94.275
				c0-6.543,5.306-11.843,11.847-11.843h1.078h6.841c6.542,0,11.844,5.3,11.844,11.843v18.802h18.802
				c6.542,0,11.845,5.303,11.845,11.843L267.098,132.842L267.098,132.842z"/>
			<path style="fill:#F7F1E6;" d="M255.253,113.077h-18.802V94.275c0-6.543-5.302-11.843-11.844-11.843h-6.841h-1.078
				c-6.541,0-11.847,5.3-11.847,11.843v18.802h-18.802c-6.537,0-11.842,5.303-11.842,11.843v7.922
				c0,6.54,5.305,11.842,11.842,11.842h18.802v18.803c0,6.543,5.306,11.846,11.847,11.846h1.078h6.841
				c6.542,0,11.844-5.303,11.844-11.846v-18.803h18.802c6.542,0,11.845-5.302,11.845-11.842v-7.922
				C267.098,118.38,261.796,113.077,255.253,113.077z"/>
		</g>
	</g>
</g>
<g>
</g>
<g>
</g>
<g>
</g>
<g>
</g>
<g>
</g>
<g>
</g>
<g>
</g>
<g>
</g>
<g>
</g>
<g>
</g>
<g>
</g>
<g>
</g>
<g>
</g>
<g>
</g>
<g>
</g>
</svg>
