<?xml version="1.0" encoding="iso-8859-1"?>
<!-- Generator: Adobe Illustrator 19.0.0, SVG Export Plug-In . SVG Version: 6.00 Build 0)  -->
<svg version="1.1" id="Capa_1" xmlns="http://www.w3.org/2000/svg" xmlns:xlink="http://www.w3.org/1999/xlink" x="0px" y="0px"
	 viewBox="0 0 352.262 352.262" style="enable-background:new 0 0 352.262 352.262;" xml:space="preserve">
<g>
	<g id="Guides_For_Artboard_10_">
	</g>
	<g id="Artwork_10_">
	</g>
	<g id="Layer_2_10_">
		<path style="fill:#D43D21;" d="M348.624,170.544c-2.835-3.287-6.953-5.355-11.318-5.355l-29.239,0.387l-10.224,0.122
			l33.685,161.921l20.584-145.104C352.719,178.239,351.47,173.827,348.624,170.544z"/>
		<g>
			<path style="fill:#F7F1E6;" d="M135.167,125.544l18.226,21.564h106.58c3.459,0,6.434,2.304,7.767,5.392h15.621
				c7.74,0,14.333,5.524,15.48,13.197l9.224,50.45V59.58h-0.813h-28.952c-12.381,0-22.418-10.036-22.418-22.419l0.839-29.764
				l25.672,26.511L256.721,7.397h-56.642h-85.568c-12.382,0-22.418,10.037-22.418,22.418v86.48h23.713
				C123.265,116.296,130.352,119.873,135.167,125.544z M143.158,65.173h119.625c4.7,0,8.518,4.248,8.518,8.946
				c0,4.7-3.802,8.933-8.518,8.933H143.158c-4.684,0-8.494-4.232-8.494-8.933C134.664,69.421,138.466,65.173,143.158,65.173z
				 M143.158,107.13h119.625c4.7,0,8.518,4.248,8.518,8.947c0,4.7-3.802,8.931-8.518,8.931H143.158c-4.684,0-8.494-4.23-8.494-8.931
				C134.664,111.378,138.466,107.13,143.158,107.13z"/>
			<path style="fill:#DEC8AE;" d="M143.158,83.052h119.625c4.716,0,8.518-4.232,8.518-8.933c0-4.698-3.817-8.946-8.518-8.946
				H143.158c-4.692,0-8.494,4.248-8.494,8.946C134.664,78.819,138.475,83.052,143.158,83.052z"/>
			<path style="fill:#DEC8AE;" d="M143.158,125.008h119.625c4.716,0,8.518-4.23,8.518-8.931c0-4.699-3.817-8.947-8.518-8.947
				H143.158c-4.692,0-8.494,4.248-8.494,8.947C134.664,120.777,138.475,125.008,143.158,125.008z"/>
			<path style="fill:#DEC8AE;" d="M259.974,147.109h-106.58l4.557,5.392H267.74C266.408,149.412,263.434,147.109,259.974,147.109z"
				/>
			<path style="fill:#E74424;" d="M298.841,165.697c-1.147-7.673-7.74-13.197-15.48-13.197H267.74H157.951l-4.557-5.392
				l-18.226-21.564c-4.815-5.671-11.903-9.248-19.362-9.248H92.093H34.318c-5.806,0-11.319,2.724-15.077,7.166
				c-3.746,4.468-5.344,10.565-4.365,16.292l2.161,12.746h-1.418c-4.568,0-8.889,1.846-11.836,5.31
				c-2.992,3.465-4.298,7.978-3.599,12.49l33.148,157.418c1.53,9.879,10.036,17.146,20.026,17.146h262.634
				c4.556,0,8.876-2.003,11.825-5.434c2.97-3.454,4.297-7.932,3.633-12.431l-0.07-0.346L298.841,165.697z M222.055,301.473
				l-7.492,5.359l-1.145,0.805c-6.934,4.94-16.991,5.144-22.808,0.524l-20.797-18.818l-23.584,21.133
				c-6.073,4.822-16.158,5.068-22.77,0.449l-8.307-5.701c-7.01-4.984-8.135-13.429-2.081-19.002l21.289-23.317l-15.053-14.7
				c-8.258-6.561-9.725-17.92-2.819-25.434l1.164-1.253l7.501-8.133c7.492-8.125,20.746-8.499,29.052-0.676l17.465,13.261
				l18.938-12.61c8.827-8.146,22.042-8.443,28.976-0.6l8.099,9.11c6.46,7.188,4.322,18.594-4.295,25.461l-16.384,13.965
				l18.249,21.156C231.004,287.702,229.387,296.286,222.055,301.473z"/>
			<path style="fill:#F7F1E6;" d="M207.004,261.296l16.384-13.965c8.618-6.867,10.756-18.272,4.295-25.461l-8.099-9.11
				c-6.934-7.844-20.149-7.546-28.976,0.6l-18.938,12.61l-17.465-13.261c-8.307-7.823-21.56-7.449-29.052,0.676l-7.501,8.133
				l-1.164,1.253c-6.906,7.514-5.439,18.873,2.819,25.434l15.053,14.7l-21.289,23.317c-6.055,5.573-4.929,14.018,2.081,19.002
				l8.307,5.701c6.611,4.619,16.696,4.373,22.77-0.449l23.584-21.133l20.797,18.818c5.817,4.619,15.874,4.416,22.808-0.524
				l1.145-0.805l7.492-5.359c7.332-5.187,8.95-13.771,3.199-19.021L207.004,261.296z"/>
			<path style="fill:#E0DCD3;" d="M255.883,37.161c0,12.383,10.037,22.419,22.418,22.419h28.952h0.813l-25.672-25.672L256.722,7.397
				L255.883,37.161z"/>
		</g>
	</g>
</g>
<g>
</g>
<g>
</g>
<g>
</g>
<g>
</g>
<g>
</g>
<g>
</g>
<g>
</g>
<g>
</g>
<g>
</g>
<g>
</g>
<g>
</g>
<g>
</g>
<g>
</g>
<g>
</g>
<g>
</g>
</svg>
