<?xml version="1.0" encoding="iso-8859-1"?>
<!-- Generator: Adobe Illustrator 19.0.0, SVG Export Plug-In . SVG Version: 6.00 Build 0)  -->
<svg version="1.1" id="Capa_1" xmlns="http://www.w3.org/2000/svg" xmlns:xlink="http://www.w3.org/1999/xlink" x="0px" y="0px"
	 viewBox="0 0 442.074 442.074" style="enable-background:new 0 0 442.074 442.074;" xml:space="preserve">
<g>
	<g id="Guides_For_Artboard_46_">
	</g>
	<g id="Artwork_45_">
	</g>
	<g id="Layer_2_45_">
		<g>
			<path style="fill:#F7F1E6;" d="M189.51,157.745c-4.342-9.383-11.792-17.589-23.99-20.691c-1.936-0.493-4.028-0.739-6.217-0.739
				c-34.825,0-96.559,63.035-126.432,117.266C6.776,300.952-3.864,347.913,1.244,393.153c2.248,19.911,25.541,36.108,51.925,36.108
				c13.657,0,39.56-4.449,61.481-33.824c5.041,0.509,9.896,0.768,14.47,0.768c0.003,0,0.003,0,0.006,0
				c21.788,0,38.485-5.803,49.629-17.25c16.921-17.379,15.956-45.625,15.956-53.393s0.05-107.607,0.05-114.463
				c0-0.247,0.033-0.519,0.085-0.803c-2.34-17.37-1.831-35.233-5.169-52.636C189.572,157.714,189.51,157.745,189.51,157.745z"/>
			<path style="fill:#F7F1E6;" d="M409.201,253.58c-29.869-54.231-91.606-117.266-126.433-117.266c-2.186,0-4.277,0.246-6.213,0.739
				c-12.199,3.102-19.651,11.309-23.993,20.691c0,0-0.108-0.057-0.296-0.161c0.808,18.266-1.341,36.466-4.957,54.103
				c-0.016,11.273,0.052,105.842,0.052,113.876c0,8.194-0.965,36.014,15.955,53.393c11.146,11.447,27.843,17.25,49.63,17.25
				c0.004,0,0.004,0,0.007,0c4.574,0,9.43-0.258,14.472-0.768c21.921,29.375,47.821,33.824,61.48,33.824
				c26.383,0,49.677-16.198,51.927-36.108C445.937,347.912,435.295,300.951,409.201,253.58z"/>
			<path style="fill:#E0DCD3;" d="M252.266,157.584c-1.661-0.924-9.851-5.772-9.851-11.55c0-6.429,0-122.624,0-127.2
				s-3.278-6.02-6.02-6.02s-26.605,0-30.674,0c-4.066,0-6.064,1.429-6.064,6.02s0,120.413,0,127.2c0,6.279-8.68,10.96-9.98,11.626
				c3.338,17.402,2.829,35.266,5.169,52.636c1.374-7.622,20.556-28.155,26.19-28.155c5.846,0,26.294,20.929,26.273,28.958
				c0,0.157-0.001,0.362-0.001,0.587C250.926,194.049,253.074,175.85,252.266,157.584z"/>
		</g>
	</g>
</g>
<g>
</g>
<g>
</g>
<g>
</g>
<g>
</g>
<g>
</g>
<g>
</g>
<g>
</g>
<g>
</g>
<g>
</g>
<g>
</g>
<g>
</g>
<g>
</g>
<g>
</g>
<g>
</g>
<g>
</g>
</svg>
