<?xml version="1.0" encoding="iso-8859-1"?>
<!-- Generator: Adobe Illustrator 19.0.0, SVG Export Plug-In . SVG Version: 6.00 Build 0)  -->
<svg version="1.1" id="Capa_1" xmlns="http://www.w3.org/2000/svg" xmlns:xlink="http://www.w3.org/1999/xlink" x="0px" y="0px"
	 viewBox="0 0 391.552 391.552" style="enable-background:new 0 0 391.552 391.552;" xml:space="preserve">
<g>
	<g id="Guides_For_Artboard_4_">
	</g>
	<g id="Artwork_4_">
	</g>
	<g id="Layer_2_4_">
		<g>
			<path style="fill:#F7F1E6;" d="M293.876,140.694c0-0.01,0.002-0.021,0.002-0.032l-0.148-0.271
				c-0.059-0.109-0.119-0.219-0.18-0.329l-53.458-97.449c-1.348,0.258-2.737,0.397-4.16,0.397H155.62
				c-1.423,0-2.812-0.14-4.159-0.397l-53.544,97.591c-2.24,4.111-3.516,8.826-3.516,13.84v208.543
				c0,15.997,12.967,28.965,28.964,28.965h144.821c15.998,0,28.965-12.968,28.965-28.965V154.044
				C297.152,149.225,295.957,144.692,293.876,140.694z M266.533,290.812c0,15.997-12.967,28.964-28.965,28.964h-83.583
				c-15.997,0-28.964-12.967-28.964-28.964v-62.268c0-15.997,12.967-28.965,28.964-28.965h83.583
				c15.998,0,28.965,12.968,28.965,28.965V290.812z"/>
			<path style="fill:#664B3A;" d="M235.932,44.01c1.423,0,2.813-0.14,4.16-0.397c10.163-1.945,17.845-10.877,17.845-21.607
				C257.937,9.854,248.085,0,235.932,0H155.62c-12.152,0-22.004,9.854-22.004,22.006c0,10.73,7.682,19.662,17.845,21.607
				c1.348,0.258,2.736,0.397,4.159,0.397C155.62,44.01,235.932,44.01,235.932,44.01z"/>
			<path style="fill:#E74424;" d="M237.568,199.58h-83.583c-15.997,0-28.964,12.968-28.964,28.965v62.268
				c0,15.997,12.967,28.964,28.964,28.964h83.583c15.998,0,28.965-12.967,28.965-28.964v-62.268
				C266.533,212.548,253.566,199.58,237.568,199.58z M227.21,262.358c0,4.426-3.588,8.014-8.015,8.014H206.47v12.725
				c0,4.428-3.587,8.017-8.015,8.017h-4.63h-0.729c-4.427,0-8.017-3.589-8.017-8.017v-12.725h-12.724
				c-4.425,0-8.014-3.588-8.014-8.014v-5.362c0-4.425,3.589-8.013,8.014-8.013h12.724v-12.724c0-4.428,3.59-8.016,8.017-8.016h0.729
				h4.63c4.428,0,8.015,3.588,8.015,8.016v12.724h12.725c4.427,0,8.015,3.588,8.015,8.013V262.358z"/>
			<path style="fill:#F7F1E6;" d="M219.196,248.983h-12.725v-12.724c0-4.428-3.587-8.016-8.015-8.016h-4.63h-0.729
				c-4.427,0-8.017,3.588-8.017,8.016v12.724h-12.724c-4.425,0-8.014,3.588-8.014,8.013v5.362c0,4.426,3.589,8.014,8.014,8.014
				h12.724v12.725c0,4.428,3.59,8.017,8.017,8.017h0.729h4.63c4.428,0,8.015-3.589,8.015-8.017v-12.725h12.725
				c4.427,0,8.015-3.588,8.015-8.014v-5.362C227.21,252.571,223.622,248.983,219.196,248.983z"/>
		</g>
	</g>
</g>
<g>
</g>
<g>
</g>
<g>
</g>
<g>
</g>
<g>
</g>
<g>
</g>
<g>
</g>
<g>
</g>
<g>
</g>
<g>
</g>
<g>
</g>
<g>
</g>
<g>
</g>
<g>
</g>
<g>
</g>
</svg>
