<?xml version="1.0" encoding="iso-8859-1"?>
<!-- Generator: Adobe Illustrator 19.0.0, SVG Export Plug-In . SVG Version: 6.00 Build 0)  -->
<svg version="1.1" id="Capa_1" xmlns="http://www.w3.org/2000/svg" xmlns:xlink="http://www.w3.org/1999/xlink" x="0px" y="0px"
	 viewBox="0 0 424.989 424.989" style="enable-background:new 0 0 424.989 424.989;" xml:space="preserve">
<g>
	<g id="Guides_For_Artboard_39_">
	</g>
	<g id="Artwork_38_">
	</g>
	<g id="Layer_2_38_">
		<g>
			<path style="fill:#2B3237;" d="M316.538,86.002c-5.465-2.726-10.172-6.738-13.728-11.644l-80.459,94.915
				c5.615,2.457,10.713,5.868,15.097,10.028L316.538,86.002z"/>
			<path style="fill:#2B3237;" d="M161.231,251.247l-93.172,89.475c5.159,3.215,9.48,7.642,12.571,12.884l94.494-90.745
				C169.844,259.812,165.144,255.877,161.231,251.247z"/>
			<path style="fill:#2B3237;" d="M71.341,130.039c-2.771,5.518-6.857,10.257-11.85,13.813l91.776,57.691
				c1.849-5.85,4.698-11.253,8.341-16.018L71.341,130.039z"/>
			<path style="fill:#2B3237;" d="M185.295,111.826c-3.354,1.309-6.994,2.04-10.806,2.059l10.244,53.69
				c3.439-1.146,7.033-1.95,10.747-2.361L185.295,111.826z"/>
			<path style="fill:#2B3237;" d="M199.059,269.82l4.003,55.061c2.652-0.763,5.45-1.18,8.348-1.18c0.878,0,1.745,0.046,2.604,0.119
				l-3.976-54.675c-2.833,0.473-5.739,0.732-8.708,0.732C200.568,269.878,199.812,269.852,199.059,269.82z"/>
			<path style="fill:#2B3237;" d="M362.523,320.7l-116.06-76.508c-3.124,5.247-7.131,9.906-11.824,13.764l117.552,77.491
				C354.409,329.721,357.983,324.674,362.523,320.7z"/>
			<path style="fill:#2B3237;" d="M253.774,219.502l59.214-12.806c-1.393-3.324-2.199-6.952-2.311-10.754l-57.629,12.463
				c0.502,2.918,0.779,5.913,0.779,8.974C253.828,218.092,253.802,218.798,253.774,219.502z"/>
			<path style="fill:#2B3237;" d="M98.504,235.519c1.444,3.316,2.309,6.941,2.468,10.75l52.168-8.05
				c-1.46-3.372-2.577-6.926-3.307-10.62L98.504,235.519z"/>
			<path style="fill:#D09220;" d="M71.341,138.232c2.551-5.079,3.995-10.808,3.995-16.878c0-20.803-16.866-37.667-37.668-37.667
				S0,100.551,0,121.354s16.866,37.667,37.668,37.667c8.137,0,15.665-2.589,21.823-6.976
				C64.484,148.49,68.57,143.751,71.341,138.232z"/>
			<path style="fill:#D09220;" d="M316.538,86.002c5.055,2.521,10.752,3.948,16.785,3.948c20.802,0,37.668-16.864,37.668-37.667
				s-16.866-37.667-37.668-37.667s-37.668,16.864-37.668,37.667c0,8.248,2.659,15.872,7.155,22.076
				C306.366,79.264,311.073,83.277,316.538,86.002z"/>
			<path style="fill:#D09220;" d="M387.321,311.372c-9.499,0-18.171,3.524-24.798,9.328c-4.54,3.976-8.114,9.021-10.332,14.748
				c-1.633,4.218-2.538,8.798-2.538,13.592c0,20.803,16.866,37.667,37.668,37.667s37.668-16.864,37.668-37.667
				S408.123,311.372,387.321,311.372z"/>
			<path style="fill:#D09220;" d="M68.059,340.722c-5.773-3.599-12.587-5.684-19.891-5.684c-20.802,0-37.668,16.864-37.668,37.667
				s16.866,37.667,37.668,37.667s37.668-16.864,37.668-37.667c0-6.973-1.902-13.499-5.206-19.1
				C77.54,348.365,73.218,343.938,68.059,340.722z"/>
			<path style="fill:#D43D21;" d="M247.477,244.794c4.43-7.441,7.108-16.043,7.475-25.243c0.028-0.721,0.055-1.443,0.055-2.171
				c0-3.13-0.283-6.191-0.797-9.175c-2.005-11.629-7.746-21.973-15.951-29.758c-4.481-4.253-9.694-7.741-15.436-10.253
				c-6.582-2.881-13.848-4.49-21.493-4.49c-2.023,0-4.016,0.122-5.98,0.34c-3.798,0.421-7.473,1.243-10.989,2.415
				c-10.308,3.434-19.224,9.901-25.688,18.353c-3.725,4.872-6.638,10.396-8.528,16.377c-1.615,5.109-2.491,10.548-2.491,16.191
				c0,3.577,0.357,7.068,1.024,10.449c0.746,3.777,1.889,7.411,3.381,10.858c2.103,4.855,4.902,9.335,8.272,13.321
				c4.001,4.732,8.807,8.757,14.206,11.875c7.258,4.191,15.582,6.736,24.472,7.115c0.77,0.033,1.542,0.059,2.321,0.059
				c3.035,0,6.007-0.265,8.903-0.749c9.448-1.578,18.063-5.612,25.154-11.44C240.186,254.921,244.283,250.158,247.477,244.794z"/>
			<path style="fill:#E0DCD3;" d="M70.837,217.38c-16.66,0-30.168,13.507-30.168,30.168c0,16.662,13.508,30.168,30.168,30.168
				s30.168-13.506,30.168-30.168c0-0.429-0.015-0.854-0.032-1.278c-0.159-3.809-1.023-7.434-2.468-10.75
				C93.857,224.846,83.22,217.38,70.837,217.38z"/>
			<path style="fill:#E0DCD3;" d="M204.501,83.721c0-16.661-13.508-30.168-30.168-30.168s-30.168,13.507-30.168,30.168
				c0,16.662,13.508,30.168,30.168,30.168c0.053,0,0.104-0.004,0.156-0.004c3.812-0.02,7.452-0.75,10.806-2.059
				C196.533,107.439,204.501,96.514,204.501,83.721z"/>
			<path style="fill:#E0DCD3;" d="M340.823,225.218c16.66,0,30.168-13.506,30.168-30.168c0-16.661-13.508-30.168-30.168-30.168
				s-30.168,13.507-30.168,30.168c0,0.299,0.014,0.595,0.022,0.893c0.111,3.802,0.918,7.43,2.311,10.754
				C317.546,217.575,328.291,225.218,340.823,225.218z"/>
			<path style="fill:#E0DCD3;" d="M203.062,324.88c-12.599,3.622-21.82,15.225-21.82,28.988c0,16.662,13.508,30.168,30.168,30.168
				s30.168-13.506,30.168-30.168c0-15.783-12.124-28.728-27.564-30.049c-0.858-0.073-1.726-0.119-2.604-0.119
				C208.512,323.701,205.714,324.118,203.062,324.88z"/>
		</g>
	</g>
</g>
<g>
</g>
<g>
</g>
<g>
</g>
<g>
</g>
<g>
</g>
<g>
</g>
<g>
</g>
<g>
</g>
<g>
</g>
<g>
</g>
<g>
</g>
<g>
</g>
<g>
</g>
<g>
</g>
<g>
</g>
</svg>
