<?xml version="1.0" encoding="iso-8859-1"?>
<!-- Generator: Adobe Illustrator 19.0.0, SVG Export Plug-In . SVG Version: 6.00 Build 0)  -->
<svg version="1.1" id="Capa_1" xmlns="http://www.w3.org/2000/svg" xmlns:xlink="http://www.w3.org/1999/xlink" x="0px" y="0px"
	 viewBox="0 0 429.305 429.305" style="enable-background:new 0 0 429.305 429.305;" xml:space="preserve">
<g>
	<g id="Guides_For_Artboard_25_">
	</g>
	<g id="Artwork_24_">
	</g>
	<g id="Layer_2_24_">
		<g>
			<path style="fill:#D43D21;" d="M214.652,0C131.177,0,63.506,67.671,63.506,151.146c0,83.476,103.891,278.159,151.146,278.159
				s151.146-194.684,151.146-278.159C365.798,67.671,298.127,0,214.652,0z M214.652,256.502
				c-56.819,0-102.881-46.062-102.881-102.881S157.833,50.742,214.652,50.742s102.881,46.06,102.881,102.879
				S271.471,256.502,214.652,256.502z"/>
			<path style="fill:#F7F1E6;" d="M214.652,50.742c-56.819,0-102.881,46.06-102.881,102.879s46.061,102.881,102.881,102.881
				s102.881-46.062,102.881-102.881S271.471,50.742,214.652,50.742z M266.151,158.011c0,7.251-5.878,13.129-13.132,13.129h-20.846
				v20.847c0,7.253-5.877,13.133-13.131,13.133h-7.585h-1.195c-7.252,0-13.134-5.88-13.134-13.133V171.14h-20.846
				c-7.248,0-13.128-5.878-13.128-13.129v-8.784c0-7.25,5.88-13.129,13.128-13.129h20.846v-20.845
				c0-7.254,5.882-13.132,13.134-13.132h1.195h7.585c7.254,0,13.131,5.878,13.131,13.132v20.845h20.846
				c7.254,0,13.132,5.879,13.132,13.129V158.011z"/>
			<path style="fill:#E74424;" d="M253.019,136.098h-20.846v-20.845c0-7.254-5.877-13.132-13.131-13.132h-7.585h-1.195
				c-7.252,0-13.134,5.878-13.134,13.132v20.845h-20.846c-7.248,0-13.128,5.879-13.128,13.129v8.784
				c0,7.251,5.88,13.129,13.128,13.129h20.846v20.847c0,7.253,5.882,13.133,13.134,13.133h1.195h7.585
				c7.254,0,13.131-5.88,13.131-13.133V171.14h20.846c7.254,0,13.132-5.878,13.132-13.129v-8.784
				C266.151,141.977,260.273,136.098,253.019,136.098z"/>
		</g>
	</g>
</g>
<g>
</g>
<g>
</g>
<g>
</g>
<g>
</g>
<g>
</g>
<g>
</g>
<g>
</g>
<g>
</g>
<g>
</g>
<g>
</g>
<g>
</g>
<g>
</g>
<g>
</g>
<g>
</g>
<g>
</g>
</svg>
