<?xml version="1.0" encoding="iso-8859-1"?>
<!-- Generator: Adobe Illustrator 19.0.0, SVG Export Plug-In . SVG Version: 6.00 Build 0)  -->
<svg version="1.1" id="Capa_1" xmlns="http://www.w3.org/2000/svg" xmlns:xlink="http://www.w3.org/1999/xlink" x="0px" y="0px"
	 viewBox="0 0 375.053 375.053" style="enable-background:new 0 0 375.053 375.053;" xml:space="preserve">
<g>
	<g id="Guides_For_Artboard_7_">
	</g>
	<g id="Artwork_7_">
	</g>
	<g id="Layer_2_7_">
		<g>
			<path style="fill:#E0DCD3;" d="M109.957,291.08l-18.32-18.315c0,0-1.033-0.579-1.792-1.748L0,360.87
				c18.294,18.295,48.281,1.502,48.281,1.502c26.308-11.683,47.214-42.288,63.452-69.958
				C110.58,291.839,109.957,291.08,109.957,291.08z"/>
			<path style="fill:#2B3237;" d="M365.605,15.088c-12.6-12.592-33.027-12.592-45.629,0c0,0-220.005,239.363-227.373,246.731
				c-4.407,4.407-3.887,7.457-2.758,9.197c0.759,1.169,1.792,1.748,1.792,1.748l18.32,18.315c0,0,0.623,0.759,1.776,1.333
				c1.926,0.961,5.333,1.408,9.793-3.052c7.129-7.129,244.079-228.637,244.079-228.637
				C378.202,48.117,378.202,27.687,365.605,15.088z"/>
		</g>
	</g>
</g>
<g>
</g>
<g>
</g>
<g>
</g>
<g>
</g>
<g>
</g>
<g>
</g>
<g>
</g>
<g>
</g>
<g>
</g>
<g>
</g>
<g>
</g>
<g>
</g>
<g>
</g>
<g>
</g>
<g>
</g>
</svg>
