<?xml version="1.0" encoding="iso-8859-1"?>
<!-- Generator: Adobe Illustrator 19.0.0, SVG Export Plug-In . SVG Version: 6.00 Build 0)  -->
<svg version="1.1" id="Capa_1" xmlns="http://www.w3.org/2000/svg" xmlns:xlink="http://www.w3.org/1999/xlink" x="0px" y="0px"
	 viewBox="0 0 401.787 401.787" style="enable-background:new 0 0 401.787 401.787;" xml:space="preserve">
<g>
	<g id="Guides_For_Artboard_22_">
	</g>
	<g id="Artwork_21_">
	</g>
	<g id="Layer_2_21_">
		<g>
			<path style="fill:#F7F1E6;" d="M368.566,329.739c-40.377-59.021-117.428-160.846-122.605-168.812V37.255
				c-1.416,0.329-2.884,0.521-4.399,0.521h-81.336c-1.512,0-2.977-0.19-4.39-0.518v123.67
				c-5.177,7.966-81.469,108.74-122.605,168.812c-30.044,43.872,0.013,73.308,35.462,72.006h132.205h132.206
				C368.554,403.047,398.59,373.625,368.566,329.739z M306.942,383.629H201.061H95.179c-28.391,1.043-52.463-22.532-28.401-57.668
				c14.654-21.399,34.876-49.245,53.181-74.134h162.199c18.423,25.047,38.736,53.011,53.186,74.134
				C359.389,361.109,335.334,384.672,306.942,383.629z"/>
			<path style="fill:#D43D21;" d="M282.157,251.827H119.959c-18.305,24.889-38.527,52.734-53.181,74.134
				c-24.062,35.136,0.01,58.711,28.401,57.668h105.882h105.881c28.392,1.043,52.447-22.521,28.401-57.668
				C320.893,304.838,300.58,276.874,282.157,251.827z"/>
			<path style="fill:#E0DCD3;" d="M241.562,38.776c1.516,0,2.984-0.191,4.399-0.521c8.584-1.995,14.988-9.675,14.988-18.866
				C260.949,8.68,252.269,0,241.562,0h-81.336c-10.708,0-19.387,8.68-19.387,19.389c0,9.195,6.408,16.877,14.998,18.869
				c1.413,0.327,2.877,0.518,4.39,0.518H241.562z"/>
		</g>
	</g>
</g>
<g>
</g>
<g>
</g>
<g>
</g>
<g>
</g>
<g>
</g>
<g>
</g>
<g>
</g>
<g>
</g>
<g>
</g>
<g>
</g>
<g>
</g>
<g>
</g>
<g>
</g>
<g>
</g>
<g>
</g>
</svg>
