<?xml version="1.0" encoding="iso-8859-1"?>
<!-- Generator: Adobe Illustrator 19.0.0, SVG Export Plug-In . SVG Version: 6.00 Build 0)  -->
<svg version="1.1" id="Capa_1" xmlns="http://www.w3.org/2000/svg" xmlns:xlink="http://www.w3.org/1999/xlink" x="0px" y="0px"
	 viewBox="0 0 390.158 390.158" style="enable-background:new 0 0 390.158 390.158;" xml:space="preserve">
<g>
	<g id="Guides_For_Artboard_12_">
	</g>
	<g id="Artwork_12_">
	</g>
	<g id="Layer_2_12_">
		<path style="fill:#2B3237;" d="M277.164,0H113.006C97.302,0,84.612,12.732,84.612,28.421v333.342
			c0,15.675,12.69,28.395,28.394,28.395h164.158c15.688,0,28.381-12.72,28.381-28.395V28.421C305.545,12.732,292.852,0,277.164,0z
			 M154.576,17.258h81.045c2.054,0,3.692,3.057,3.692,6.832c0,3.79-1.639,6.859-3.692,6.859h-81.045
			c-2.068,0-3.693-3.069-3.693-6.859C150.883,20.314,152.508,17.258,154.576,17.258z M195.106,362.109
			c-9.999,0-18.133-8.135-18.133-18.146c0-10.013,8.134-18.106,18.133-18.106c9.968,0,18.076,8.094,18.076,18.106
			C213.183,353.975,205.075,362.109,195.106,362.109z M284.273,299.99H105.898V47.958h178.375L284.273,299.99L284.273,299.99z"/>
		<rect x="105.898" y="47.958" style="fill:#F7F1E6;" width="178.375" height="252.032"/>
		<path style="fill:#E74424;" d="M234.861,156.948h-21.613v-21.615c0-7.521-6.095-13.615-13.615-13.615h-7.864h-1.24
			c-7.52,0-13.617,6.094-13.617,13.615v21.615h-21.615c-7.515,0-13.612,6.095-13.612,13.613v9.106
			c0,7.519,6.098,13.613,13.612,13.613h21.615v21.616c0,7.521,6.098,13.617,13.617,13.617h1.24h7.864
			c7.521,0,13.615-6.097,13.615-13.617V193.28h21.613c7.521,0,13.617-6.095,13.617-13.613v-9.106
			C248.479,163.043,242.383,156.948,234.861,156.948z"/>
		<path style="fill:#E6A123;" d="M195.109,363.286c-10.647,0-19.311-8.664-19.311-19.324c0-10.662,8.663-19.281,19.311-19.281
			c10.615,0,19.25,8.619,19.25,19.281C214.359,354.622,205.725,363.286,195.109,363.286z"/>
		<path style="fill:#E6A123;" d="M154.576,17.258h81.045c2.054,0,3.692,3.057,3.692,6.832c0,3.79-1.639,6.859-3.692,6.859h-81.045
			c-2.068,0-3.693-3.069-3.693-6.859C150.883,20.314,152.508,17.258,154.576,17.258z"/>
	</g>
</g>
<g>
</g>
<g>
</g>
<g>
</g>
<g>
</g>
<g>
</g>
<g>
</g>
<g>
</g>
<g>
</g>
<g>
</g>
<g>
</g>
<g>
</g>
<g>
</g>
<g>
</g>
<g>
</g>
<g>
</g>
</svg>
