<?xml version="1.0" encoding="iso-8859-1"?>
<!-- Generator: Adobe Illustrator 19.0.0, SVG Export Plug-In . SVG Version: 6.00 Build 0)  -->
<svg version="1.1" id="Capa_1" xmlns="http://www.w3.org/2000/svg" xmlns:xlink="http://www.w3.org/1999/xlink" x="0px" y="0px"
	 viewBox="0 0 426.395 426.395" style="enable-background:new 0 0 426.395 426.395;" xml:space="preserve">
<g>
	<g id="Guides_For_Artboard_34_">
	</g>
	<g id="Artwork_33_">
	</g>
	<g id="Layer_2_33_">
		<g>
			<path style="fill:#DBC7AC;" d="M342.678,143.279h-46.765v167.432h46.765c46.235,0,83.717-37.479,83.717-83.715
				S388.913,143.279,342.678,143.279z M322.122,279.527c-5.432,0-9.832-4.402-9.832-9.831c0-5.43,4.4-9.832,9.832-9.832
				c5.428,0,9.829,4.401,9.829,9.832C331.951,275.125,327.55,279.527,322.122,279.527z M322.122,237.317
				c-5.432,0-9.832-4.401-9.832-9.831c0-5.429,4.4-9.83,9.832-9.83c5.428,0,9.829,4.401,9.829,9.83
				C331.951,232.916,327.55,237.317,322.122,237.317z M322.122,194.126c-5.432,0-9.832-4.401-9.832-9.831
				c0-5.429,4.4-9.83,9.832-9.83c5.428,0,9.829,4.401,9.829,9.83S327.55,194.126,322.122,194.126z M349.647,259.435
				c-5.428,0-9.83-4.401-9.83-9.832c0-5.427,4.402-9.828,9.83-9.828c5.43,0,9.832,4.401,9.832,9.828
				C359.479,255.033,355.076,259.435,349.647,259.435z M349.647,215.196c-5.428,0-9.83-4.402-9.83-9.831s4.402-9.83,9.83-9.83
				c5.43,0,9.832,4.401,9.832,9.83S355.076,215.196,349.647,215.196z M376.519,279.527c-5.431,0-9.832-4.402-9.832-9.831
				c0-5.43,4.401-9.832,9.832-9.832c5.429,0,9.83,4.401,9.83,9.832C386.349,275.125,381.948,279.527,376.519,279.527z
				 M376.521,237.317c-5.429,0-9.83-4.401-9.83-9.831c0-5.429,4.401-9.83,9.83-9.83c5.431,0,9.831,4.401,9.831,9.83
				C386.352,232.916,381.951,237.317,376.521,237.317z M376.521,194.126c-5.429,0-9.83-4.401-9.83-9.831
				c0-5.429,4.401-9.83,9.83-9.83c5.431,0,9.831,4.401,9.831,9.83S381.951,194.126,376.521,194.126z"/>
			<path style="fill:#DBC7AC;" d="M129.481,143.279H83.716C37.48,143.279,0,180.76,0,226.996s37.479,83.715,83.716,83.715h45.765
				v-47.997V143.279z M50.88,281.76c-5.429,0-9.83-4.401-9.83-9.83c0-5.43,4.401-9.832,9.83-9.832c5.431,0,9.831,4.402,9.831,9.832
				C60.711,277.359,56.311,281.76,50.88,281.76z M50.88,239.551c-5.429,0-9.83-4.402-9.83-9.831s4.401-9.832,9.83-9.832
				c5.431,0,9.831,4.402,9.831,9.832C60.711,235.149,56.311,239.551,50.88,239.551z M50.88,196.359c-5.429,0-9.83-4.4-9.83-9.832
				c0-5.427,4.401-9.829,9.83-9.829c5.431,0,9.831,4.402,9.831,9.829C60.711,191.959,56.311,196.359,50.88,196.359z M78.407,261.669
				c-5.43,0-9.83-4.402-9.83-9.831c0-5.428,4.4-9.83,9.83-9.83c5.431,0,9.831,4.402,9.831,9.83
				C88.238,257.266,83.837,261.669,78.407,261.669z M78.407,217.429c-5.43,0-9.83-4.402-9.83-9.831s4.4-9.83,9.83-9.83
				c5.431,0,9.831,4.401,9.831,9.83S83.837,217.429,78.407,217.429z M105.277,281.76c-5.429,0-9.829-4.401-9.829-9.83
				c0-5.43,4.4-9.832,9.829-9.832c5.431,0,9.832,4.402,9.832,9.832C115.109,277.359,110.707,281.76,105.277,281.76z
				 M105.282,239.551c-5.431,0-9.831-4.402-9.831-9.831s4.4-9.832,9.831-9.832c5.43,0,9.831,4.402,9.831,9.832
				C115.113,235.149,110.711,239.551,105.282,239.551z M105.282,196.359c-5.431,0-9.831-4.4-9.831-9.832
				c0-5.427,4.4-9.829,9.831-9.829c5.43,0,9.831,4.402,9.831,9.829C115.113,191.959,110.711,196.359,105.282,196.359z"/>
			<circle style="fill:#E4DAD1;" cx="50.88" cy="186.529" r="9.83"/>
			<circle style="fill:#E4DAD1;" cx="50.88" cy="229.72" r="9.831"/>
			<circle style="fill:#E4DAD1;" cx="50.88" cy="271.93" r="9.831"/>
			<circle style="fill:#E4DAD1;" cx="78.407" cy="251.838" r="9.831"/>
			<circle style="fill:#E4DAD1;" cx="78.407" cy="207.599" r="9.83"/>
			<circle style="fill:#E4DAD1;" cx="105.282" cy="186.529" r="9.83"/>
			<circle style="fill:#E4DAD1;" cx="105.282" cy="229.72" r="9.831"/>
			<circle style="fill:#E4DAD1;" cx="105.277" cy="271.93" r="9.831"/>
			<circle style="fill:#E4DAD1;" cx="322.122" cy="184.295" r="9.831"/>
			<circle style="fill:#E4DAD1;" cx="322.122" cy="227.486" r="9.831"/>
			<circle style="fill:#E4DAD1;" cx="322.122" cy="269.696" r="9.831"/>
			<circle style="fill:#E4DAD1;" cx="349.647" cy="249.605" r="9.83"/>
			<circle style="fill:#E4DAD1;" cx="349.647" cy="205.366" r="9.83"/>
			<circle style="fill:#E4DAD1;" cx="376.521" cy="184.295" r="9.831"/>
			<circle style="fill:#E4DAD1;" cx="376.521" cy="227.486" r="9.831"/>
			<circle style="fill:#E4DAD1;" cx="376.519" cy="269.696" r="9.831"/>
			<path style="fill:#F3DBBD;" d="M151.083,412.597l24.072-10.805l-24.112,10.758C151.057,412.566,151.07,412.582,151.083,412.597z"
				/>
			<path style="fill:#F3DBBD;" d="M296.913,143.279V97.514c0-46.236-37.479-83.717-83.716-83.717S129.48,51.278,129.48,97.514
				v45.765v119.436v47.997v45.765c0,21.505,8.115,41.11,21.443,55.937c-2.373-22.657,4.45-46.194,20.823-64.519
				c30.81-34.478,83.729-37.452,118.207-6.645l6.716,6.002l0.243-0.109v-36.431v-47.997V143.279H296.913z M163.67,257.276v-55.472
				v-5.091c0-27.354,22.175-49.528,49.528-49.528s49.528,22.175,49.528,49.528v5.091v55.472c0,27.353-22.175,49.528-49.528,49.528
				S163.67,284.629,163.67,257.276z M255.898,53.843c5.429,0,9.831,4.4,9.831,9.831c0,5.429-4.402,9.83-9.831,9.83
				c-5.43,0-9.831-4.401-9.831-9.83C246.067,58.244,250.468,53.843,255.898,53.843z M255.898,108.24c5.429,0,9.831,4.401,9.831,9.83
				c0,5.431-4.402,9.831-9.831,9.831c-5.43,0-9.831-4.4-9.831-9.831C246.067,112.641,250.468,108.24,255.898,108.24z
				 M235.805,80.713c5.431,0,9.831,4.402,9.831,9.831s-4.4,9.831-9.831,9.831c-5.428,0-9.829-4.402-9.829-9.831
				C225.976,85.116,230.377,80.713,235.805,80.713z M213.688,53.839c5.429,0,9.831,4.402,9.831,9.831s-4.402,9.831-9.831,9.831
				s-9.83-4.402-9.83-9.831S208.259,53.839,213.688,53.839z M213.688,108.24c5.429,0,9.831,4.401,9.831,9.83
				c0,5.431-4.402,9.831-9.831,9.831s-9.83-4.4-9.83-9.831C203.858,112.641,208.259,108.24,213.688,108.24z M191.567,80.713
				c5.429,0,9.832,4.402,9.832,9.831s-4.403,9.831-9.832,9.831c-5.428,0-9.829-4.402-9.829-9.831
				C181.738,85.116,186.139,80.713,191.567,80.713z M170.496,53.839c5.429,0,9.831,4.402,9.831,9.831s-4.402,9.831-9.831,9.831
				s-9.83-4.402-9.83-9.831S165.068,53.839,170.496,53.839z M170.496,108.24c5.429,0,9.831,4.401,9.831,9.83
				c0,5.431-4.402,9.831-9.831,9.831s-9.83-4.4-9.83-9.831C160.666,112.641,165.068,108.24,170.496,108.24z M169.29,344.742
				c-5.428,0-9.829-4.401-9.829-9.831s4.401-9.83,9.829-9.83c5.432,0,9.832,4.4,9.832,9.83S174.722,344.742,169.29,344.742z"/>
			<path style="fill:#DBC7AC;" d="M171.747,347.894c-16.373,18.325-23.196,41.861-20.823,64.519
				c0.006,0.062,0.008,0.123,0.015,0.185l0.104-0.046l24.112-10.758l121.758-54.324l-0.243-0.217l-6.716-6.002
				C255.477,310.442,202.557,313.416,171.747,347.894z"/>
			<path style="fill:#F2E7DD;" d="M213.199,306.805c27.354,0,49.528-22.175,49.528-49.528v-55.472v-5.091
				c0-27.354-22.175-49.528-49.528-49.528s-49.528,22.175-49.528,49.528v5.091v55.472
				C163.67,284.629,185.845,306.805,213.199,306.805z"/>
			<path style="fill:#F2E7DD;" d="M169.29,325.081c-5.428,0-9.829,4.4-9.829,9.83s4.401,9.831,9.829,9.831
				c5.432,0,9.832-4.401,9.832-9.831S174.722,325.081,169.29,325.081z"/>
			<circle style="fill:#F2E7DD;" cx="170.496" cy="118.07" r="9.831"/>
			<circle style="fill:#F2E7DD;" cx="213.688" cy="118.07" r="9.831"/>
			<circle style="fill:#F2E7DD;" cx="255.898" cy="118.07" r="9.831"/>
			<circle style="fill:#F2E7DD;" cx="235.805" cy="90.545" r="9.831"/>
			<circle style="fill:#F2E7DD;" cx="191.567" cy="90.545" r="9.831"/>
			<circle style="fill:#F2E7DD;" cx="170.496" cy="63.67" r="9.831"/>
			<circle style="fill:#F2E7DD;" cx="213.688" cy="63.67" r="9.831"/>
			<circle style="fill:#F2E7DD;" cx="255.898" cy="63.674" r="9.831"/>
		</g>
	</g>
</g>
<g>
</g>
<g>
</g>
<g>
</g>
<g>
</g>
<g>
</g>
<g>
</g>
<g>
</g>
<g>
</g>
<g>
</g>
<g>
</g>
<g>
</g>
<g>
</g>
<g>
</g>
<g>
</g>
<g>
</g>
</svg>
