<?xml version="1.0" encoding="iso-8859-1"?>
<!-- Generator: Adobe Illustrator 19.0.0, SVG Export Plug-In . SVG Version: 6.00 Build 0)  -->
<svg version="1.1" id="Capa_1" xmlns="http://www.w3.org/2000/svg" xmlns:xlink="http://www.w3.org/1999/xlink" x="0px" y="0px"
	 viewBox="0 0 425.772 425.772" style="enable-background:new 0 0 425.772 425.772;" xml:space="preserve">
<g>
	<g id="Guides_For_Artboard_33_">
	</g>
	<g id="Artwork_32_">
	</g>
	<g id="Layer_2_32_">
		<g>
			<path style="fill:#2B3237;" d="M109.075,303.763C95.407,316.787-6.891,414.73,0.368,421.989
				c7.084,7.084,100.724-90.823,117.356-108.329c-1.711-0.751-3.319-1.813-4.721-3.214
				C111.078,308.519,109.772,306.21,109.075,303.763z"/>
			<path style="fill:#5A9794;" d="M122.828,278.752l-9.823,9.823c-4.113,4.113-5.419,9.965-3.93,15.188
				c0.697,2.446,2.003,4.756,3.929,6.683c1.401,1.401,3.009,2.463,4.721,3.214c5.666,2.486,12.512,1.425,17.151-3.214l8.797-8.797
				c-3.765-2.163-8.314-4.842-11.532-8.059C127.75,289.198,125.314,284.152,122.828,278.752z"/>
			<polygon style="fill:#F7F1E6;" points="359.922,53.967 342.214,71.617 354.562,83.965 355.701,85.1 373.408,67.453 
				367.072,61.117 			"/>
			<path style="fill:#62A5A2;" d="M337.289,115.354c1.661,1.661,1.66,4.354,0,6.015c-1.661,1.661-4.353,1.661-6.015,0l-6.972-6.972
				l-16.979,16.921l7,7c1.661,1.662,1.661,4.354,0,6.015s-4.354,1.662-6.015,0.001l-7.009-7.011l-18.62,18.559l7.041,7.041
				c1.661,1.661,1.66,4.354-0.002,6.015c-1.659,1.661-4.353,1.661-6.014,0l-7.051-7.051l-15.848,16.795l17.787,17.787
				c3.188,3.19,2.188,7.362-1,10.552c-2.393,2.392-4.896,1.99-7.844,0.796l-73.149,74.149c-0.046,0.047-0.097,0.084-0.143,0.129
				c-0.085,0.086-0.163,0.176-0.247,0.261c-13.983,13.982-36.654,13.983-50.636,0c-13.193-13.193-14.442-34.61-2.737-48.676
				c1.046-1.047,1.775-1.776,2.737-2.738l74.053-73.053c-1.397-3.02-0.86-6.714,1.629-9.204c3.19-3.189,7.363-2.189,10.552,1
				l17.489,16.489l15.849-15.795l-7.898-7.898c-1.661-1.661-1.661-4.354,0-6.015c1.66-1.661,4.354-1.661,6.015,0l7.908,7.908
				l18.621-18.558l-7.939-7.939c-1.66-1.661-1.661-4.354,0-6.016s4.354-1.66,6.016,0l7.949,7.95l16.979-16.921l-7.979-7.978
				c-1.659-1.661-1.661-4.354,0-6.015c1.661-1.661,4.354-1.661,6.015,0l7.988,7.988l23.351-25.27l12.392,12.35l-12.348-12.348
				l-18.701-18.702c-6.04-6.04-15.83-6.04-21.871,0l-169.5,169.5c-1.349,1.35-2.188,2.187-3.828,3.827
				c-12.535,15.064-14.483,36.137-6.486,53.509c2.486,5.4,5.922,10.446,10.313,14.837c3.217,3.217,6.767,5.896,10.532,8.059
				c19.206,11.032,44.138,8.353,60.549-8.059c0.12-0.12,0.23-0.246,0.349-0.366c0.065-0.063,0.136-0.116,0.2-0.18l169.5-169.5
				c6.039-6.04,6.039-15.831-0.001-21.871l-18.57-18.57l-24.372,24.291L337.289,115.354z"/>
			<path style="fill:#F7F1E6;" d="M220.257,160.237c-0.7-0.7-1.237-1.499-1.63-2.348l-73.053,73.053
				c-0.962,0.962-1.691,1.691-2.737,2.738c-11.705,14.066-10.457,35.483,2.737,48.676c13.982,13.983,36.653,13.982,50.636,0
				c0.084-0.085,0.162-0.175,0.247-0.261c0.046-0.045,0.097-0.083,0.143-0.129l73.149-73.149c-0.985-0.399-1.909-0.998-2.708-1.796
				L220.257,160.237z"/>
			<path style="fill:#2B3237;" d="M421.905,78.617l-35.666-35.666L350.573,7.284c-4.967-4.965-12.807-5.178-17.512-0.473
				l-2.128,2.13c-4.705,4.703-4.493,12.543,0.472,17.508l28.517,28.517l7.15,7.15l6.336,6.336l29.33,29.33
				c4.967,4.965,12.806,5.178,17.509,0.473l2.131-2.129C427.082,91.422,426.87,83.583,421.905,78.617z"/>
			<g>
				<polygon style="fill:#5A9794;" points="294.817,118.81 308.324,132.318 325.303,115.397 311.795,101.889 				"/>
				<polygon style="fill:#5A9794;" points="270.17,143.374 283.679,156.882 302.299,138.323 288.791,124.816 				"/>
				<path style="fill:#5A9794;" d="M261.806,178.682l15.848-15.795l-13.508-13.508l-15.849,15.795l-16.489-16.489
					c-3.188-3.189-8.361-3.189-11.552,0c-2.489,2.49-3.026,6.184-1.629,9.204c0.393,0.849,0.93,1.647,1.63,2.348l46.784,46.784
					c0.799,0.799,1.723,1.397,2.708,1.796c2.948,1.193,6.451,0.595,8.844-1.796c3.188-3.189,3.188-8.362,0-11.552L261.806,178.682z"
					/>
				<polygon style="fill:#5A9794;" points="354.562,83.965 342.17,71.615 317.819,95.885 331.327,109.392 355.699,85.102 
					355.701,85.1 				"/>
			</g>
			<path style="fill:#F7F1E6;" d="M263.262,136.466c-1.661-1.661-4.354-1.661-6.015,0c-1.661,1.662-1.661,4.354,0,6.015l6.898,6.898
				l13.508,13.508l6.051,6.051c1.661,1.661,4.354,1.661,6.014,0c1.662-1.661,1.663-4.354,0.002-6.015l-6.041-6.041l-13.509-13.508
				L263.262,136.466z"/>
			<path style="fill:#F7F1E6;" d="M287.867,111.861c-1.661-1.66-4.354-1.661-6.016,0s-1.66,4.354,0,6.016l6.939,6.939l13.509,13.507
				l6.011,6.01c1.661,1.661,4.354,1.66,6.015-0.001c1.661-1.661,1.661-4.353,0-6.015l-6-6l-13.508-13.508L287.867,111.861z"/>
			<path style="fill:#F7F1E6;" d="M304.817,88.896c-1.661,1.661-1.659,4.354,0,6.015l6.979,6.978l13.508,13.508l5.972,5.972
				c1.662,1.661,4.354,1.661,6.015,0c1.66-1.661,1.661-4.354,0-6.015l-5.962-5.961l-13.508-13.508l-6.988-6.988
				C309.17,87.236,306.478,87.235,304.817,88.896z"/>
		</g>
	</g>
</g>
<g>
</g>
<g>
</g>
<g>
</g>
<g>
</g>
<g>
</g>
<g>
</g>
<g>
</g>
<g>
</g>
<g>
</g>
<g>
</g>
<g>
</g>
<g>
</g>
<g>
</g>
<g>
</g>
<g>
</g>
</svg>
