<?xml version="1.0" encoding="iso-8859-1"?>
<!-- Generator: Adobe Illustrator 19.0.0, SVG Export Plug-In . SVG Version: 6.00 Build 0)  -->
<svg version="1.1" id="Capa_1" xmlns="http://www.w3.org/2000/svg" xmlns:xlink="http://www.w3.org/1999/xlink" x="0px" y="0px"
	 viewBox="0 0 422.167 422.167" style="enable-background:new 0 0 422.167 422.167;" xml:space="preserve">
<g>
	<g id="Guides_For_Artboard_16_">
	</g>
	<g id="Artwork_15_">
	</g>
	<g id="Layer_2_15_">
		<g>
			<path style="fill:#77A7A2;" d="M412.93,116.783L305.384,9.237C292.672-3.474,271.459-2.87,258.748,9.841L9.534,259.056
				c-12.712,12.711-12.712,33.32,0,46.032l107.545,107.545c12.712,12.712,33.321,12.712,46.032,0l249.214-249.214
				C425.037,150.708,425.641,129.495,412.93,116.783z M249.07,66.528c4.594-14.984,19.145-24.172,34.169-22.538
				c1.992,0.217,3.992,0.621,5.979,1.23c1.724,0.529,3.369,1.191,4.931,1.968c13.823,6.877,21.05,22.933,16.376,38.179
				c-4.674,15.248-19.658,24.493-34.961,22.441c-1.729-0.232-3.462-0.605-5.186-1.134c-1.987-0.608-3.87-1.394-5.641-2.331
				C251.377,97.276,244.476,81.511,249.07,66.528z M180.812,134.786c4.594-14.984,19.145-24.172,34.169-22.538
				c1.992,0.217,3.992,0.622,5.979,1.231c1.723,0.528,3.368,1.19,4.93,1.968c13.823,6.877,21.051,22.933,16.376,38.179
				c-4.674,15.248-19.659,24.493-34.961,22.441c-1.729-0.232-3.463-0.605-5.186-1.134c-1.987-0.609-3.87-1.395-5.641-2.332
				C183.119,165.534,176.219,149.769,180.812,134.786z M112.554,203.043c4.594-14.983,19.145-24.171,34.169-22.538
				c1.992,0.217,3.992,0.622,5.978,1.231c1.723,0.528,3.368,1.19,4.931,1.968c13.823,6.876,21.05,22.932,16.376,38.179
				c-4.674,15.248-19.659,24.494-34.961,22.441c-1.73-0.232-3.463-0.605-5.186-1.133c-1.987-0.609-3.87-1.396-5.641-2.332
				C114.862,233.792,107.961,218.027,112.554,203.043z M70.789,312.582c-1.729-0.231-3.462-0.605-5.186-1.133
				c-1.986-0.609-3.87-1.395-5.64-2.332c-13.359-7.067-20.26-22.832-15.667-37.815c4.594-14.984,19.145-24.172,34.169-22.538
				c1.992,0.217,3.992,0.621,5.979,1.23c1.723,0.529,3.368,1.191,4.93,1.968c13.823,6.876,21.051,22.933,16.376,38.179
				C101.076,305.388,86.092,314.634,70.789,312.582z M168.346,357.418c-4.675,15.247-19.659,24.493-34.961,22.44
				c-1.73-0.232-3.463-0.605-5.187-1.134c-1.986-0.608-3.87-1.395-5.641-2.332c-13.359-7.066-20.26-22.832-15.666-37.815
				c4.593-14.984,19.144-24.172,34.169-22.538c1.992,0.217,3.992,0.621,5.978,1.23c1.723,0.529,3.368,1.191,4.931,1.968
				C165.793,326.115,173.02,342.17,168.346,357.418z M236.604,289.16c-4.675,15.247-19.659,24.493-34.961,22.44
				c-1.729-0.232-3.463-0.605-5.186-1.134c-1.986-0.609-3.87-1.395-5.641-2.332c-13.359-7.067-20.26-22.832-15.666-37.816
				c4.593-14.983,19.144-24.172,34.169-22.537c1.992,0.217,3.992,0.621,5.978,1.23c1.723,0.528,3.368,1.19,4.931,1.967
				C234.051,257.857,241.278,273.913,236.604,289.16z M304.861,220.902c-4.674,15.247-19.658,24.493-34.961,22.441
				c-1.729-0.233-3.463-0.606-5.186-1.134c-1.986-0.609-3.87-1.395-5.641-2.332c-13.359-7.067-20.26-22.832-15.667-37.815
				c4.593-14.984,19.144-24.172,34.169-22.538c1.992,0.217,3.992,0.621,5.979,1.23c1.723,0.528,3.369,1.19,4.931,1.967
				C302.308,189.599,309.535,205.655,304.861,220.902z M373.119,152.644c-4.674,15.247-19.658,24.493-34.961,22.44
				c-1.729-0.232-3.463-0.605-5.186-1.134c-1.987-0.608-3.87-1.394-5.641-2.332c-13.359-7.066-20.26-22.832-15.667-37.815
				c4.594-14.984,19.144-24.172,34.169-22.538c1.992,0.217,3.992,0.621,5.978,1.23c1.723,0.529,3.368,1.191,4.931,1.968
				C370.566,121.341,377.793,137.398,373.119,152.644z"/>
			<path style="fill:#F7F1E6;" d="M356.743,114.464l-18.585,60.62c15.303,2.052,30.287-7.194,34.961-22.44
				C377.793,137.398,370.566,121.341,356.743,114.464z"/>
			<path style="fill:#F7F1E6;" d="M311.665,133.804c-4.593,14.983,2.307,30.749,15.667,37.815l18.503-60.353
				C330.809,109.631,316.259,118.82,311.665,133.804z"/>
			<path style="fill:#E0DCD3;" d="M351.812,112.496c-1.986-0.609-3.986-1.013-5.978-1.23l-18.503,60.353
				c1.771,0.938,3.654,1.723,5.641,2.332c1.723,0.529,3.457,0.902,5.186,1.134l18.585-60.62
				C355.18,113.687,353.535,113.025,351.812,112.496z"/>
			<path style="fill:#F7F1E6;" d="M310.524,85.368c4.674-15.247-2.553-31.302-16.376-38.179l-18.585,60.62
				C290.866,109.861,305.849,100.615,310.524,85.368z"/>
			<path style="fill:#F7F1E6;" d="M264.737,104.343l18.502-60.353c-15.024-1.635-29.575,7.554-34.169,22.538
				C244.476,81.511,251.377,97.276,264.737,104.343z"/>
			<path style="fill:#E0DCD3;" d="M270.377,106.674c1.723,0.529,3.457,0.902,5.186,1.134l18.585-60.62
				c-1.562-0.777-3.207-1.439-4.931-1.968c-1.986-0.609-3.987-1.013-5.979-1.23l-18.502,60.353
				C266.507,105.28,268.39,106.066,270.377,106.674z"/>
			<path style="fill:#F7F1E6;" d="M288.485,182.722L269.9,243.343c15.303,2.052,30.287-7.194,34.961-22.441
				C309.535,205.655,302.308,189.599,288.485,182.722z"/>
			<path style="fill:#F7F1E6;" d="M243.407,202.062c-4.594,14.983,2.307,30.748,15.667,37.815l18.502-60.353
				C262.551,177.889,248,187.078,243.407,202.062z"/>
			<path style="fill:#E0DCD3;" d="M283.555,180.754c-1.987-0.609-3.987-1.013-5.979-1.23l-18.502,60.353
				c1.771,0.938,3.654,1.723,5.641,2.332c1.723,0.528,3.457,0.901,5.186,1.134l18.585-60.621
				C286.923,181.944,285.278,181.283,283.555,180.754z"/>
			<path style="fill:#F7F1E6;" d="M242.266,153.626c4.674-15.247-2.553-31.302-16.376-38.179l-18.585,60.62
				C222.608,178.119,237.592,168.873,242.266,153.626z"/>
			<path style="fill:#F7F1E6;" d="M196.479,172.601l18.502-60.353c-15.025-1.634-29.576,7.554-34.169,22.538
				C176.219,149.769,183.119,165.534,196.479,172.601z"/>
			<path style="fill:#E0DCD3;" d="M202.119,174.933c1.723,0.528,3.457,0.901,5.186,1.134l18.585-60.62
				c-1.562-0.777-3.207-1.439-4.93-1.968c-1.986-0.609-3.987-1.014-5.979-1.231l-18.502,60.353
				C198.25,173.538,200.133,174.324,202.119,174.933z"/>
			<path style="fill:#F7F1E6;" d="M220.227,250.98l-18.585,60.621c15.303,2.052,30.287-7.193,34.961-22.44
				C241.278,273.913,234.051,257.857,220.227,250.98z"/>
			<path style="fill:#F7F1E6;" d="M175.15,270.319c-4.594,14.984,2.307,30.749,15.666,37.816l18.503-60.353
				C194.293,246.147,179.743,255.336,175.15,270.319z"/>
			<path style="fill:#E0DCD3;" d="M215.297,249.012c-1.986-0.609-3.986-1.014-5.978-1.23l-18.503,60.353
				c1.771,0.937,3.654,1.722,5.641,2.332c1.723,0.528,3.457,0.902,5.186,1.134l18.585-60.621
				C218.665,250.203,217.02,249.541,215.297,249.012z"/>
			<path style="fill:#F7F1E6;" d="M174.009,221.883c4.674-15.247-2.554-31.303-16.376-38.179l-18.584,60.62
				C154.35,246.377,169.334,237.131,174.009,221.883z"/>
			<path style="fill:#F7F1E6;" d="M128.221,240.859l18.503-60.354c-15.025-1.634-29.576,7.554-34.169,22.538
				C107.961,218.027,114.862,233.792,128.221,240.859z"/>
			<path style="fill:#E0DCD3;" d="M133.862,243.191c1.723,0.528,3.456,0.901,5.186,1.133l18.584-60.62
				c-1.563-0.777-3.208-1.439-4.931-1.968c-1.986-0.609-3.986-1.014-5.978-1.231l-18.503,60.354
				C129.992,241.795,131.875,242.582,133.862,243.191z"/>
			<path style="fill:#F7F1E6;" d="M151.97,319.238l-18.584,60.62c15.302,2.052,30.286-7.194,34.961-22.44
				C173.02,342.17,165.793,326.115,151.97,319.238z"/>
			<path style="fill:#F7F1E6;" d="M106.892,338.577c-4.594,14.983,2.307,30.749,15.666,37.815l18.503-60.353
				C126.036,314.405,111.485,323.593,106.892,338.577z"/>
			<path style="fill:#E0DCD3;" d="M147.039,317.27c-1.986-0.609-3.986-1.013-5.978-1.23l-18.503,60.353
				c1.771,0.937,3.654,1.723,5.641,2.332c1.723,0.529,3.457,0.902,5.187,1.134l18.584-60.62
				C150.407,318.461,148.762,317.798,147.039,317.27z"/>
			<path style="fill:#F7F1E6;" d="M89.374,251.962l-18.585,60.62c15.303,2.053,30.287-7.193,34.961-22.44
				C110.425,274.895,103.198,258.838,89.374,251.962z"/>
			<path style="fill:#F7F1E6;" d="M44.296,271.301c-4.593,14.983,2.308,30.749,15.667,37.815l18.502-60.353
				C63.441,247.129,48.89,256.317,44.296,271.301z"/>
			<path style="fill:#E0DCD3;" d="M84.444,249.994c-1.987-0.609-3.987-1.013-5.979-1.23l-18.502,60.353
				c1.771,0.937,3.654,1.723,5.64,2.332c1.724,0.528,3.457,0.902,5.186,1.133l18.585-60.62
				C87.812,251.185,86.167,250.523,84.444,249.994z"/>
		</g>
	</g>
</g>
<g>
</g>
<g>
</g>
<g>
</g>
<g>
</g>
<g>
</g>
<g>
</g>
<g>
</g>
<g>
</g>
<g>
</g>
<g>
</g>
<g>
</g>
<g>
</g>
<g>
</g>
<g>
</g>
<g>
</g>
</svg>
