<?xml version="1.0" encoding="iso-8859-1"?>
<!-- Generator: Adobe Illustrator 19.0.0, SVG Export Plug-In . SVG Version: 6.00 Build 0)  -->
<svg version="1.1" id="Capa_1" xmlns="http://www.w3.org/2000/svg" xmlns:xlink="http://www.w3.org/1999/xlink" x="0px" y="0px"
	 viewBox="0 0 415.22 415.22" style="enable-background:new 0 0 415.22 415.22;" xml:space="preserve">
<g>
	<g id="Guides_For_Artboard_45_">
	</g>
	<g id="Artwork_44_">
	</g>
	<g id="Layer_2_44_">
		<g>
			<rect x="181.263" y="61.178" style="fill:#F7F1E6;" width="11.666" height="31.785"/>
			<rect x="181.263" y="102.414" style="fill:#F7F1E6;" width="11.666" height="31.785"/>
			<path style="fill:#F7F1E6;" d="M233.956,304.213V26.346C233.956,11.793,222.162,0,207.609,0s-26.347,11.793-26.347,26.346v25.381
				h11.666V30.413c0-8.109,6.571-14.681,14.681-14.681c8.11,0,14.681,6.572,14.681,14.681v285.813
				c0.592,0.298,1.168,0.62,1.739,0.953c15.952,6.41,27.22,22.015,27.22,40.259c0,23.96-19.424,43.384-43.385,43.384
				c-23.96,0-43.383-19.424-43.383-43.384c0-17.618,10.508-32.773,25.594-39.566c0.924-0.59,1.87-1.15,2.854-1.646v-48.868h-11.666
				v36.855c-19.146,9.649-32.285,29.472-32.285,52.375c0,32.381,26.25,58.632,58.632,58.632s58.632-26.251,58.632-58.632
				C266.242,333.685,253.102,313.863,233.956,304.213z"/>
			<rect x="181.263" y="184.886" style="fill:#F7F1E6;" width="11.666" height="31.786"/>
			<rect x="181.263" y="226.121" style="fill:#F7F1E6;" width="11.666" height="31.785"/>
			<rect x="181.263" y="143.649" style="fill:#F7F1E6;" width="11.666" height="31.786"/>
			<path style="fill:#E74424;" d="M207.61,56.452c0,2.608-2.115,4.726-4.724,4.726h-9.957v31.785h9.957
				c2.608,0,4.724,2.117,4.724,4.726c0,2.608-2.115,4.725-4.724,4.725h-9.957v31.785h9.957c2.608,0,4.724,2.117,4.724,4.725
				c0,2.609-2.115,4.725-4.724,4.725h-9.957v31.786h9.957c2.608,0,4.724,2.116,4.724,4.726c0,2.609-2.115,4.725-4.724,4.725h-9.957
				v31.786h9.957c2.608,0,4.724,2.116,4.724,4.725c0,2.608-2.115,4.725-4.724,4.725h-9.957v31.785h9.957
				c2.608,0,4.724,2.117,4.724,4.726c0,2.608-2.115,4.726-4.724,4.726h-9.957v48.868c-0.983,0.496-1.93,1.056-2.854,1.646
				c-15.086,6.793-25.594,21.949-25.594,39.566c0,23.96,19.423,43.384,43.383,43.384c23.961,0,43.385-19.424,43.385-43.384
				c0-18.245-11.268-33.85-27.22-40.259c-0.571-0.333-1.147-0.655-1.739-0.953V30.413c0-8.109-6.571-14.681-14.681-14.681
				s-14.681,6.572-14.681,14.681v21.313h9.957C205.494,51.727,207.61,53.844,207.61,56.452z"/>
			<path style="fill:#2B3237;" d="M202.886,61.178c2.608,0,4.724-2.117,4.724-4.726s-2.115-4.726-4.724-4.726h-9.957h-11.666h-0.285
				v9.451h0.285h11.666L202.886,61.178L202.886,61.178z"/>
			<path style="fill:#2B3237;" d="M202.886,102.414c2.608,0,4.724-2.117,4.724-4.725c0-2.609-2.115-4.726-4.724-4.726h-9.957
				h-11.666h-0.285v9.451h0.285h11.666H202.886z"/>
			<path style="fill:#2B3237;" d="M202.886,143.649c2.608,0,4.724-2.116,4.724-4.725c0-2.608-2.115-4.725-4.724-4.725h-9.957
				h-11.666h-0.285v9.45h0.285h11.666H202.886L202.886,143.649z"/>
			<path style="fill:#2B3237;" d="M202.886,184.886c2.608,0,4.724-2.116,4.724-4.725c0-2.609-2.115-4.726-4.724-4.726h-9.957
				h-11.666h-0.285v9.451h0.285h11.666H202.886z"/>
			<path style="fill:#2B3237;" d="M202.886,226.121c2.608,0,4.724-2.117,4.724-4.725c0-2.609-2.115-4.725-4.724-4.725h-9.957
				h-11.666h-0.285v9.45h0.285h11.666H202.886z"/>
			<path style="fill:#2B3237;" d="M202.886,267.358c2.608,0,4.724-2.117,4.724-4.726s-2.115-4.726-4.724-4.726h-9.957h-11.666
				h-0.285v9.451h0.285h11.666h9.957V267.358z"/>
		</g>
	</g>
</g>
<g>
</g>
<g>
</g>
<g>
</g>
<g>
</g>
<g>
</g>
<g>
</g>
<g>
</g>
<g>
</g>
<g>
</g>
<g>
</g>
<g>
</g>
<g>
</g>
<g>
</g>
<g>
</g>
<g>
</g>
</svg>
